<?xml version="1.0" encoding="UTF-8" standalone="no"?>
<!-- Created with Inkscape (http://www.inkscape.org/) -->

<svg
   xmlns:dc="http://purl.org/dc/elements/1.1/"
   xmlns:cc="http://creativecommons.org/ns#"
   xmlns:rdf="http://www.w3.org/1999/02/22-rdf-syntax-ns#"
   xmlns:svg="http://www.w3.org/2000/svg"
   xmlns="http://www.w3.org/2000/svg"
   xmlns:sodipodi="http://sodipodi.sourceforge.net/DTD/sodipodi-0.dtd"
   xmlns:inkscape="http://www.inkscape.org/namespaces/inkscape"
   width="210mm"
   height="297mm"
   viewBox="0 0 210 297"
   version="1.1"
   id="svg8"
   sodipodi:docname="Family_Recipes.svg"
   inkscape:version="0.92.3 (2405546, 2018-03-11)">
  <defs
     id="defs2" />
  <sodipodi:namedview
     id="base"
     pagecolor="#ffffff"
     bordercolor="#666666"
     borderopacity="1.0"
     inkscape:pageopacity="0.0"
     inkscape:pageshadow="2"
     inkscape:zoom="0.41444149"
     inkscape:cx="391.77401"
     inkscape:cy="430.11724"
     inkscape:document-units="mm"
     inkscape:current-layer="g842"
     showgrid="false"
     inkscape:measure-start="0,0"
     inkscape:measure-end="0,0"
     inkscape:window-width="1920"
     inkscape:window-height="1052"
     inkscape:window-x="1600"
     inkscape:window-y="0"
     inkscape:window-maximized="1" />
  <metadata
     id="metadata5">
    <rdf:RDF>
      <cc:Work
         rdf:about="">
        <dc:format>image/svg+xml</dc:format>
        <dc:type
           rdf:resource="http://purl.org/dc/dcmitype/StillImage" />
      </cc:Work>
    </rdf:RDF>
  </metadata>
  <g
     inkscape:label="Layer 1"
     inkscape:groupmode="layer"
     id="layer1">
    <g
       id="g842"
       transform="matrix(3.1522648,0,0,3.1522648,-223.09685,-316.56431)">
      <rect
         ry="5.8621116"
         y="118.19244"
         x="74.801407"
         height="57.783669"
         width="57.783669"
         id="rect815"
         style="fill:#fe9a76;fill-opacity:1;stroke:none;stroke-width:0.39687499;stroke-miterlimit:4;stroke-dasharray:none;stroke-opacity:1" />
      <rect
         ry="1.3659366"
         y="127.91754"
         x="83.332024"
         height="40.319931"
         width="40.722431"
         id="rect817"
         style="fill:none;fill-opacity:1;stroke:#ffffff;stroke-width:1;stroke-miterlimit:4;stroke-dasharray:none;stroke-opacity:1" />
      <path
         style="color:#000000;font-style:normal;font-variant:normal;font-weight:normal;font-stretch:normal;font-size:medium;line-height:normal;font-family:sans-serif;font-variant-ligatures:normal;font-variant-position:normal;font-variant-caps:normal;font-variant-numeric:normal;font-variant-alternates:normal;font-feature-settings:normal;text-indent:0;text-align:start;text-decoration:none;text-decoration-line:none;text-decoration-style:solid;text-decoration-color:#000000;letter-spacing:normal;word-spacing:normal;text-transform:none;writing-mode:lr-tb;direction:ltr;text-orientation:mixed;dominant-baseline:auto;baseline-shift:baseline;text-anchor:start;white-space:normal;shape-padding:0;clip-rule:nonzero;display:inline;overflow:visible;visibility:visible;opacity:1;isolation:auto;mix-blend-mode:normal;color-interpolation:sRGB;color-interpolation-filters:linearRGB;solid-color:#000000;solid-opacity:1;vector-effect:none;fill:#ffffff;fill-opacity:1;fill-rule:nonzero;stroke:#fe9a76;stroke-width:0.85652703;stroke-linecap:round;stroke-linejoin:miter;stroke-miterlimit:4;stroke-dasharray:none;stroke-dashoffset:0;stroke-opacity:1;paint-order:stroke markers fill;color-rendering:auto;image-rendering:auto;shape-rendering:auto;text-rendering:auto;enable-background:accumulate"
         d="m 84.84355,125.53906 a 0.29997308,0.29997308 0 0 0 -0.148437,0.56446 c 0,0 0.761553,0.44003 1.119141,1.10937 0.178793,0.33467 0.263849,0.70526 0.132812,1.15039 -0.131037,0.44513 -0.49481,0.98369 -1.287109,1.58789 a 0.30039743,0.30039743 0 1 0 0.363281,0.47852 c 0.858513,-0.6547 1.319557,-1.29016 1.498047,-1.89649 0.17849,-0.60633 0.05617,-1.16568 -0.177735,-1.60351 -0.467818,-0.87568 -1.357421,-1.34961 -1.357421,-1.34961 a 0.29997308,0.29997308 0 0 0 -0.142579,-0.041 z"
         id="path834"
         inkscape:connector-curvature="0" />
      <path
         style="color:#000000;font-style:normal;font-variant:normal;font-weight:normal;font-stretch:normal;font-size:medium;line-height:normal;font-family:sans-serif;font-variant-ligatures:normal;font-variant-position:normal;font-variant-caps:normal;font-variant-numeric:normal;font-variant-alternates:normal;font-feature-settings:normal;text-indent:0;text-align:start;text-decoration:none;text-decoration-line:none;text-decoration-style:solid;text-decoration-color:#000000;letter-spacing:normal;word-spacing:normal;text-transform:none;writing-mode:lr-tb;direction:ltr;text-orientation:mixed;dominant-baseline:auto;baseline-shift:baseline;text-anchor:start;white-space:normal;shape-padding:0;clip-rule:nonzero;display:inline;overflow:visible;visibility:visible;opacity:1;isolation:auto;mix-blend-mode:normal;color-interpolation:sRGB;color-interpolation-filters:linearRGB;solid-color:#000000;solid-opacity:1;vector-effect:none;fill:#ffffff;fill-opacity:1;fill-rule:nonzero;stroke:#fe9a76;stroke-width:0.85652703;stroke-linecap:round;stroke-linejoin:miter;stroke-miterlimit:4;stroke-dasharray:none;stroke-dashoffset:0;stroke-opacity:1;paint-order:stroke markers fill;color-rendering:auto;image-rendering:auto;shape-rendering:auto;text-rendering:auto;enable-background:accumulate"
         d="m 88.163863,125.53906 a 0.29997308,0.29997308 0 0 0 -0.146484,0.56446 c 0,0 0.761553,0.44003 1.11914,1.10937 0.178794,0.33467 0.261897,0.70526 0.13086,1.15039 -0.131038,0.44513 -0.49481,0.98369 -1.28711,1.58789 a 0.30039743,0.30039743 0 1 0 0.363281,0.47852 c 0.858514,-0.6547 1.32151,-1.29016 1.5,-1.89649 0.178491,-0.60633 0.05422,-1.16568 -0.179687,-1.60351 -0.467819,-0.87568 -1.355469,-1.34961 -1.355469,-1.34961 a 0.29997308,0.29997308 0 0 0 -0.144531,-0.041 z"
         id="path836"
         inkscape:connector-curvature="0" />
      <path
         style="color:#000000;font-style:normal;font-variant:normal;font-weight:normal;font-stretch:normal;font-size:medium;line-height:normal;font-family:sans-serif;font-variant-ligatures:normal;font-variant-position:normal;font-variant-caps:normal;font-variant-numeric:normal;font-variant-alternates:normal;font-feature-settings:normal;text-indent:0;text-align:start;text-decoration:none;text-decoration-line:none;text-decoration-style:solid;text-decoration-color:#000000;letter-spacing:normal;word-spacing:normal;text-transform:none;writing-mode:lr-tb;direction:ltr;text-orientation:mixed;dominant-baseline:auto;baseline-shift:baseline;text-anchor:start;white-space:normal;shape-padding:0;clip-rule:nonzero;display:inline;overflow:visible;visibility:visible;opacity:1;isolation:auto;mix-blend-mode:normal;color-interpolation:sRGB;color-interpolation-filters:linearRGB;solid-color:#000000;solid-opacity:1;vector-effect:none;fill:#ffffff;fill-opacity:1;fill-rule:nonzero;stroke:#fe9a76;stroke-width:0.85652703;stroke-linecap:round;stroke-linejoin:miter;stroke-miterlimit:4;stroke-dasharray:none;stroke-dashoffset:0;stroke-opacity:1;paint-order:stroke markers fill;color-rendering:auto;image-rendering:auto;shape-rendering:auto;text-rendering:auto;enable-background:accumulate"
         d="m 91.486129,125.53906 a 0.29997308,0.29997308 0 0 0 -0.148438,0.56446 c 0,0 0.761553,0.44003 1.119141,1.10937 0.178794,0.33467 0.261896,0.70526 0.130859,1.15039 -0.131037,0.44513 -0.49481,0.98369 -1.287109,1.58789 a 0.30039743,0.30039743 0 1 0 0.363281,0.47852 c 0.858513,-0.6547 1.32151,-1.29016 1.5,-1.89649 0.17849,-0.60633 0.05617,-1.16568 -0.177734,-1.60351 -0.467819,-0.87568 -1.357422,-1.34961 -1.357422,-1.34961 a 0.29997308,0.29997308 0 0 0 -0.142578,-0.041 z"
         id="path838"
         inkscape:connector-curvature="0" />
      <path
         style="color:#000000;font-style:normal;font-variant:normal;font-weight:normal;font-stretch:normal;font-size:medium;line-height:normal;font-family:sans-serif;font-variant-ligatures:normal;font-variant-position:normal;font-variant-caps:normal;font-variant-numeric:normal;font-variant-alternates:normal;font-feature-settings:normal;text-indent:0;text-align:start;text-decoration:none;text-decoration-line:none;text-decoration-style:solid;text-decoration-color:#000000;letter-spacing:normal;word-spacing:normal;text-transform:none;writing-mode:lr-tb;direction:ltr;text-orientation:mixed;dominant-baseline:auto;baseline-shift:baseline;text-anchor:start;white-space:normal;shape-padding:0;clip-rule:nonzero;display:inline;overflow:visible;visibility:visible;opacity:1;isolation:auto;mix-blend-mode:normal;color-interpolation:sRGB;color-interpolation-filters:linearRGB;solid-color:#000000;solid-opacity:1;vector-effect:none;fill:#ffffff;fill-opacity:1;fill-rule:nonzero;stroke:#fe9a76;stroke-width:0.85652703;stroke-linecap:round;stroke-linejoin:miter;stroke-miterlimit:4;stroke-dasharray:none;stroke-dashoffset:0;stroke-opacity:1;paint-order:stroke markers fill;color-rendering:auto;image-rendering:auto;shape-rendering:auto;text-rendering:auto;enable-background:accumulate"
         d="m 94.806441,125.53906 a 0.29997308,0.29997308 0 0 0 -0.148437,0.56446 c 0,0 0.761552,0.44003 1.11914,1.10937 0.178794,0.33467 0.261897,0.70526 0.13086,1.15039 -0.131038,0.44513 -0.494809,0.98369 -1.28711,1.58789 a 0.3009892,0.3009892 0 1 0 0.365235,0.47852 c 0.858514,-0.6547 1.319556,-1.29016 1.498047,-1.89649 0.17849,-0.60633 0.05617,-1.16568 -0.177735,-1.60351 -0.46782,-0.87568 -1.357422,-1.34961 -1.357422,-1.34961 a 0.29997308,0.29997308 0 0 0 -0.142578,-0.041 z"
         id="path840"
         inkscape:connector-curvature="0" />
      <path
         style="color:#000000;font-style:normal;font-variant:normal;font-weight:normal;font-stretch:normal;font-size:medium;line-height:normal;font-family:sans-serif;font-variant-ligatures:normal;font-variant-position:normal;font-variant-caps:normal;font-variant-numeric:normal;font-variant-alternates:normal;font-feature-settings:normal;text-indent:0;text-align:start;text-decoration:none;text-decoration-line:none;text-decoration-style:solid;text-decoration-color:#000000;letter-spacing:normal;word-spacing:normal;text-transform:none;writing-mode:lr-tb;direction:ltr;text-orientation:mixed;dominant-baseline:auto;baseline-shift:baseline;text-anchor:start;white-space:normal;shape-padding:0;clip-rule:nonzero;display:inline;overflow:visible;visibility:visible;opacity:1;isolation:auto;mix-blend-mode:normal;color-interpolation:sRGB;color-interpolation-filters:linearRGB;solid-color:#000000;solid-opacity:1;vector-effect:none;fill:#ffffff;fill-opacity:1;fill-rule:nonzero;stroke:#fe9a76;stroke-width:0.85652703;stroke-linecap:round;stroke-linejoin:miter;stroke-miterlimit:4;stroke-dasharray:none;stroke-dashoffset:0;stroke-opacity:1;paint-order:stroke markers fill;color-rendering:auto;image-rendering:auto;shape-rendering:auto;text-rendering:auto;enable-background:accumulate"
         d="m 98.126754,125.53906 a 0.29997308,0.29997308 0 0 0 -0.148438,0.56446 c 0,0 0.761555,0.44003 1.119141,1.10937 0.178793,0.33467 0.263849,0.70526 0.132812,1.15039 -0.131036,0.44514 -0.494813,0.98369 -1.287109,1.58789 a 0.30039743,0.30039743 0 1 0 0.363281,0.47852 c 0.85851,-0.6547 1.319558,-1.29016 1.498047,-1.89649 0.178493,-0.60633 0.05617,-1.16568 -0.177734,-1.60351 -0.467817,-0.87568 -1.357422,-1.34961 -1.357422,-1.34961 a 0.29997308,0.29997308 0 0 0 -0.142578,-0.041 z"
         id="path842"
         inkscape:connector-curvature="0" />
      <path
         style="color:#000000;font-style:normal;font-variant:normal;font-weight:normal;font-stretch:normal;font-size:medium;line-height:normal;font-family:sans-serif;font-variant-ligatures:normal;font-variant-position:normal;font-variant-caps:normal;font-variant-numeric:normal;font-variant-alternates:normal;font-feature-settings:normal;text-indent:0;text-align:start;text-decoration:none;text-decoration-line:none;text-decoration-style:solid;text-decoration-color:#000000;letter-spacing:normal;word-spacing:normal;text-transform:none;writing-mode:lr-tb;direction:ltr;text-orientation:mixed;dominant-baseline:auto;baseline-shift:baseline;text-anchor:start;white-space:normal;shape-padding:0;clip-rule:nonzero;display:inline;overflow:visible;visibility:visible;opacity:1;isolation:auto;mix-blend-mode:normal;color-interpolation:sRGB;color-interpolation-filters:linearRGB;solid-color:#000000;solid-opacity:1;vector-effect:none;fill:#ffffff;fill-opacity:1;fill-rule:nonzero;stroke:#fe9a76;stroke-width:0.85652703;stroke-linecap:round;stroke-linejoin:miter;stroke-miterlimit:4;stroke-dasharray:none;stroke-dashoffset:0;stroke-opacity:1;paint-order:stroke markers fill;color-rendering:auto;image-rendering:auto;shape-rendering:auto;text-rendering:auto;enable-background:accumulate"
         d="m 101.44707,125.53906 a 0.29997308,0.29997308 0 0 0 -0.14844,0.56446 c 0,0 0.76155,0.44003 1.11914,1.10937 0.1788,0.33467 0.26385,0.70526 0.13281,1.15039 -0.13103,0.44513 -0.49481,0.98369 -1.28711,1.58789 a 0.30040016,0.30040016 0 1 0 0.36329,0.47852 c 0.85851,-0.6547 1.31955,-1.29016 1.49804,-1.89649 0.17849,-0.60633 0.0562,-1.16568 -0.17773,-1.60351 -0.46782,-0.87568 -1.35742,-1.34961 -1.35742,-1.34961 a 0.29997308,0.29997308 0 0 0 -0.14258,-0.041 z"
         id="path844"
         inkscape:connector-curvature="0" />
      <path
         style="color:#000000;font-style:normal;font-variant:normal;font-weight:normal;font-stretch:normal;font-size:medium;line-height:normal;font-family:sans-serif;font-variant-ligatures:normal;font-variant-position:normal;font-variant-caps:normal;font-variant-numeric:normal;font-variant-alternates:normal;font-feature-settings:normal;text-indent:0;text-align:start;text-decoration:none;text-decoration-line:none;text-decoration-style:solid;text-decoration-color:#000000;letter-spacing:normal;word-spacing:normal;text-transform:none;writing-mode:lr-tb;direction:ltr;text-orientation:mixed;dominant-baseline:auto;baseline-shift:baseline;text-anchor:start;white-space:normal;shape-padding:0;clip-rule:nonzero;display:inline;overflow:visible;visibility:visible;opacity:1;isolation:auto;mix-blend-mode:normal;color-interpolation:sRGB;color-interpolation-filters:linearRGB;solid-color:#000000;solid-opacity:1;vector-effect:none;fill:#ffffff;fill-opacity:1;fill-rule:nonzero;stroke:#fe9a76;stroke-width:0.85652703;stroke-linecap:round;stroke-linejoin:miter;stroke-miterlimit:4;stroke-dasharray:none;stroke-dashoffset:0;stroke-opacity:1;paint-order:stroke markers fill;color-rendering:auto;image-rendering:auto;shape-rendering:auto;text-rendering:auto;enable-background:accumulate"
         d="m 104.76738,125.53906 a 0.29997308,0.29997308 0 0 0 -0.14648,0.56446 c 0,0 0.76155,0.44003 1.11914,1.10937 0.17879,0.33467 0.26189,0.70526 0.13086,1.15039 -0.13104,0.44513 -0.49481,0.98369 -1.28711,1.58789 a 0.30039713,0.30039713 0 1 0 0.36328,0.47852 c 0.85851,-0.6547 1.32151,-1.29016 1.5,-1.89649 0.17849,-0.60633 0.0562,-1.16568 -0.17774,-1.60351 -0.46782,-0.87568 -1.35742,-1.34961 -1.35742,-1.34961 a 0.29997308,0.29997308 0 0 0 -0.14453,-0.041 z"
         id="path846"
         inkscape:connector-curvature="0" />
      <path
         style="color:#000000;font-style:normal;font-variant:normal;font-weight:normal;font-stretch:normal;font-size:medium;line-height:normal;font-family:sans-serif;font-variant-ligatures:normal;font-variant-position:normal;font-variant-caps:normal;font-variant-numeric:normal;font-variant-alternates:normal;font-feature-settings:normal;text-indent:0;text-align:start;text-decoration:none;text-decoration-line:none;text-decoration-style:solid;text-decoration-color:#000000;letter-spacing:normal;word-spacing:normal;text-transform:none;writing-mode:lr-tb;direction:ltr;text-orientation:mixed;dominant-baseline:auto;baseline-shift:baseline;text-anchor:start;white-space:normal;shape-padding:0;clip-rule:nonzero;display:inline;overflow:visible;visibility:visible;opacity:1;isolation:auto;mix-blend-mode:normal;color-interpolation:sRGB;color-interpolation-filters:linearRGB;solid-color:#000000;solid-opacity:1;vector-effect:none;fill:#ffffff;fill-opacity:1;fill-rule:nonzero;stroke:#fe9a76;stroke-width:0.85652703;stroke-linecap:round;stroke-linejoin:miter;stroke-miterlimit:4;stroke-dasharray:none;stroke-dashoffset:0;stroke-opacity:1;paint-order:stroke markers fill;color-rendering:auto;image-rendering:auto;shape-rendering:auto;text-rendering:auto;enable-background:accumulate"
         d="m 108.08965,125.53906 a 0.29997308,0.29997308 0 0 0 -0.14844,0.56446 c 0,0 0.76155,0.44003 1.11914,1.10937 0.17879,0.33467 0.2619,0.70526 0.13086,1.15039 -0.13104,0.44513 -0.49481,0.98369 -1.28711,1.58789 a 0.30039713,0.30039713 0 1 0 0.36328,0.47852 c 0.85852,-0.6547 1.32151,-1.29016 1.5,-1.89649 0.17849,-0.60633 0.0562,-1.16568 -0.17773,-1.60351 -0.46782,-0.87568 -1.35743,-1.34961 -1.35743,-1.34961 a 0.29997308,0.29997308 0 0 0 -0.14257,-0.041 z"
         id="path848"
         inkscape:connector-curvature="0" />
      <path
         style="color:#000000;font-style:normal;font-variant:normal;font-weight:normal;font-stretch:normal;font-size:medium;line-height:normal;font-family:sans-serif;font-variant-ligatures:normal;font-variant-position:normal;font-variant-caps:normal;font-variant-numeric:normal;font-variant-alternates:normal;font-feature-settings:normal;text-indent:0;text-align:start;text-decoration:none;text-decoration-line:none;text-decoration-style:solid;text-decoration-color:#000000;letter-spacing:normal;word-spacing:normal;text-transform:none;writing-mode:lr-tb;direction:ltr;text-orientation:mixed;dominant-baseline:auto;baseline-shift:baseline;text-anchor:start;white-space:normal;shape-padding:0;clip-rule:nonzero;display:inline;overflow:visible;visibility:visible;opacity:1;isolation:auto;mix-blend-mode:normal;color-interpolation:sRGB;color-interpolation-filters:linearRGB;solid-color:#000000;solid-opacity:1;vector-effect:none;fill:#ffffff;fill-opacity:1;fill-rule:nonzero;stroke:#fe9a76;stroke-width:0.85652703;stroke-linecap:round;stroke-linejoin:miter;stroke-miterlimit:4;stroke-dasharray:none;stroke-dashoffset:0;stroke-opacity:1;paint-order:stroke markers fill;color-rendering:auto;image-rendering:auto;shape-rendering:auto;text-rendering:auto;enable-background:accumulate"
         d="m 111.40996,125.53906 a 0.29997308,0.29997308 0 0 0 -0.14844,0.56446 c 0,0 0.76155,0.44003 1.11914,1.10937 0.1788,0.33467 0.2619,0.70526 0.13086,1.15039 -0.13104,0.44513 -0.49481,0.98369 -1.28711,1.58789 a 0.30099072,0.30099072 0 1 0 0.36524,0.47852 c 0.85851,-0.6547 1.31955,-1.29016 1.49804,-1.89649 0.17849,-0.60633 0.0562,-1.16568 -0.17773,-1.60351 -0.46782,-0.87568 -1.35742,-1.34961 -1.35742,-1.34961 a 0.29997308,0.29997308 0 0 0 -0.14258,-0.041 z"
         id="path850"
         inkscape:connector-curvature="0" />
      <path
         style="color:#000000;font-style:normal;font-variant:normal;font-weight:normal;font-stretch:normal;font-size:medium;line-height:normal;font-family:sans-serif;font-variant-ligatures:normal;font-variant-position:normal;font-variant-caps:normal;font-variant-numeric:normal;font-variant-alternates:normal;font-feature-settings:normal;text-indent:0;text-align:start;text-decoration:none;text-decoration-line:none;text-decoration-style:solid;text-decoration-color:#000000;letter-spacing:normal;word-spacing:normal;text-transform:none;writing-mode:lr-tb;direction:ltr;text-orientation:mixed;dominant-baseline:auto;baseline-shift:baseline;text-anchor:start;white-space:normal;shape-padding:0;clip-rule:nonzero;display:inline;overflow:visible;visibility:visible;opacity:1;isolation:auto;mix-blend-mode:normal;color-interpolation:sRGB;color-interpolation-filters:linearRGB;solid-color:#000000;solid-opacity:1;vector-effect:none;fill:#ffffff;fill-opacity:1;fill-rule:nonzero;stroke:#fe9a76;stroke-width:0.85652703;stroke-linecap:round;stroke-linejoin:miter;stroke-miterlimit:4;stroke-dasharray:none;stroke-dashoffset:0;stroke-opacity:1;paint-order:stroke markers fill;color-rendering:auto;image-rendering:auto;shape-rendering:auto;text-rendering:auto;enable-background:accumulate"
         d="m 114.73027,125.53906 a 0.29997308,0.29997308 0 0 0 -0.14844,0.56446 c 0,0 0.76156,0.44003 1.11914,1.10937 0.1788,0.33467 0.26385,0.70526 0.13282,1.15039 -0.13104,0.44513 -0.49481,0.98369 -1.28711,1.58789 a 0.30039713,0.30039713 0 1 0 0.36328,0.47852 c 0.85851,-0.6547 1.31956,-1.29016 1.49805,-1.89649 0.17849,-0.60633 0.0562,-1.16568 -0.17774,-1.60351 -0.46782,-0.87568 -1.35742,-1.34961 -1.35742,-1.34961 a 0.29997308,0.29997308 0 0 0 -0.14258,-0.041 z"
         id="path852"
         inkscape:connector-curvature="0" />
      <path
         style="color:#000000;font-style:normal;font-variant:normal;font-weight:normal;font-stretch:normal;font-size:medium;line-height:normal;font-family:sans-serif;font-variant-ligatures:normal;font-variant-position:normal;font-variant-caps:normal;font-variant-numeric:normal;font-variant-alternates:normal;font-feature-settings:normal;text-indent:0;text-align:start;text-decoration:none;text-decoration-line:none;text-decoration-style:solid;text-decoration-color:#000000;letter-spacing:normal;word-spacing:normal;text-transform:none;writing-mode:lr-tb;direction:ltr;text-orientation:mixed;dominant-baseline:auto;baseline-shift:baseline;text-anchor:start;white-space:normal;shape-padding:0;clip-rule:nonzero;display:inline;overflow:visible;visibility:visible;opacity:1;isolation:auto;mix-blend-mode:normal;color-interpolation:sRGB;color-interpolation-filters:linearRGB;solid-color:#000000;solid-opacity:1;vector-effect:none;fill:#ffffff;fill-opacity:1;fill-rule:nonzero;stroke:#fe9a76;stroke-width:0.85652703;stroke-linecap:round;stroke-linejoin:miter;stroke-miterlimit:4;stroke-dasharray:none;stroke-dashoffset:0;stroke-opacity:1;paint-order:stroke markers fill;color-rendering:auto;image-rendering:auto;shape-rendering:auto;text-rendering:auto;enable-background:accumulate"
         d="m 121.3709,125.66992 a 0.29997308,0.29997308 0 0 0 -0.14649,0.56446 c 0,0 0.76155,0.44003 1.11914,1.10937 0.1788,0.33467 0.2619,0.70526 0.13086,1.15039 -0.13104,0.44514 -0.49481,0.98369 -1.28711,1.58789 a 0.30039713,0.30039713 0 1 0 0.36328,0.47852 c 0.85852,-0.6547 1.32151,-1.29015 1.5,-1.89649 0.17849,-0.60633 0.0562,-1.16568 -0.17773,-1.60351 -0.46782,-0.87568 -1.35742,-1.34961 -1.35742,-1.34961 a 0.29997308,0.29997308 0 0 0 -0.14453,-0.041 z"
         id="path854"
         inkscape:connector-curvature="0" />
      <path
         style="color:#000000;font-style:normal;font-variant:normal;font-weight:normal;font-stretch:normal;font-size:medium;line-height:normal;font-family:sans-serif;font-variant-ligatures:normal;font-variant-position:normal;font-variant-caps:normal;font-variant-numeric:normal;font-variant-alternates:normal;font-feature-settings:normal;text-indent:0;text-align:start;text-decoration:none;text-decoration-line:none;text-decoration-style:solid;text-decoration-color:#000000;letter-spacing:normal;word-spacing:normal;text-transform:none;writing-mode:lr-tb;direction:ltr;text-orientation:mixed;dominant-baseline:auto;baseline-shift:baseline;text-anchor:start;white-space:normal;shape-padding:0;clip-rule:nonzero;display:inline;overflow:visible;visibility:visible;opacity:1;isolation:auto;mix-blend-mode:normal;color-interpolation:sRGB;color-interpolation-filters:linearRGB;solid-color:#000000;solid-opacity:1;vector-effect:none;fill:#ffffff;fill-opacity:1;fill-rule:nonzero;stroke:#fe9a76;stroke-width:0.85652703;stroke-linecap:round;stroke-linejoin:miter;stroke-miterlimit:4;stroke-dasharray:none;stroke-dashoffset:0;stroke-opacity:1;paint-order:stroke markers fill;color-rendering:auto;image-rendering:auto;shape-rendering:auto;text-rendering:auto;enable-background:accumulate"
         d="m 118.05058,125.53906 a 0.29997308,0.29997308 0 0 0 -0.14648,0.56446 c 0,0 0.7596,0.44003 1.11719,1.10937 0.17879,0.33467 0.26385,0.70526 0.13281,1.15039 -0.13104,0.44513 -0.49481,0.98369 -1.28711,1.58789 a 0.30039713,0.30039713 0 1 0 0.36328,0.47852 c 0.85852,-0.6547 1.31956,-1.29016 1.49805,-1.89649 0.17849,-0.60633 0.0562,-1.16568 -0.17774,-1.60351 -0.46782,-0.87568 -1.35546,-1.34961 -1.35546,-1.34961 a 0.29997308,0.29997308 0 0 0 -0.14454,-0.041 z"
         id="path856"
         inkscape:connector-curvature="0" />
      <path
         style="fill:none;stroke:#ffffff;stroke-width:0.56848016;stroke-linecap:round;stroke-linejoin:miter;stroke-miterlimit:4;stroke-dasharray:none;stroke-opacity:1"
         d="M 86.303613,134.73001 H 121.2459"
         id="path855"
         inkscape:connector-curvature="0" />
      <path
         inkscape:connector-curvature="0"
         id="path857"
         d="M 86.303615,140.22739 H 121.2459"
         style="fill:none;stroke:#ffffff;stroke-width:0.56848016;stroke-linecap:round;stroke-linejoin:miter;stroke-miterlimit:4;stroke-dasharray:none;stroke-opacity:1" />
      <path
         style="fill:none;stroke:#ffffff;stroke-width:0.56848016;stroke-linecap:round;stroke-linejoin:miter;stroke-miterlimit:4;stroke-dasharray:none;stroke-opacity:1"
         d="M 86.303613,145.72475 H 121.2459"
         id="path859"
         inkscape:connector-curvature="0" />
      <path
         inkscape:connector-curvature="0"
         id="path861"
         d="M 86.303613,151.22212 H 121.2459"
         style="fill:none;stroke:#ffffff;stroke-width:0.56848016;stroke-linecap:round;stroke-linejoin:miter;stroke-miterlimit:4;stroke-dasharray:none;stroke-opacity:1" />
      <path
         style="fill:none;stroke:#ffffff;stroke-width:0.56848016;stroke-linecap:round;stroke-linejoin:miter;stroke-miterlimit:4;stroke-dasharray:none;stroke-opacity:1"
         d="M 86.303613,156.71949 H 121.2459"
         id="path863"
         inkscape:connector-curvature="0" />
      <path
         inkscape:connector-curvature="0"
         id="path865"
         d="M 86.303612,162.21685 H 121.2459"
         style="fill:none;stroke:#ffffff;stroke-width:0.56848016;stroke-linecap:round;stroke-linejoin:miter;stroke-miterlimit:4;stroke-dasharray:none;stroke-opacity:1" />
      <path
         id="path883"
         transform="scale(0.26458333)"
         d="m 419.25391,452.40039 c -1.56039,0.0551 -2.87183,0.88603 -3.9336,2.49414 -0.69014,1.04527 -1.23757,2.68107 -1.64453,4.90625 -0.407,2.22516 -0.64284,4.74806 -0.70508,7.57031 -0.0837,2.78491 0.006,5.74422 0.27149,8.875 0.24358,3.09345 0.68191,6.04999 1.31445,8.86914 0.24585,1.20144 0.5057,2.29567 0.77734,3.28321 0.27163,0.98754 0.55816,1.91533 0.86133,2.78515 0.26152,0.7731 0.57749,1.51508 0.93555,2.23243 -0.0605,0.24493 -0.11538,0.5116 -0.15625,0.82617 -0.41235,3.42238 -0.87154,6.37525 -1.37891,8.85742 -0.48584,2.51948 -0.96548,4.18994 -1.4375,5.00977 -0.20664,0.41766 -0.36469,0.6579 -0.47656,0.72265 -0.11197,0.0638 -0.31508,0.0554 -0.60937,-0.0234 -1.13414,-0.2408 -2.18072,-1.10295 -3.13868,-2.58984 -0.8991,-1.47109 -1.77474,-3.67804 -2.62695,-6.61914 -0.32043,-1.15835 -0.59726,-2.06877 -0.83008,-2.73047 -0.25431,-0.69901 -0.50701,-1.22455 -0.75976,-1.57617 -0.21546,-0.37319 -0.48104,-0.61627 -0.79688,-0.73242 -0.27852,-0.13758 -0.63273,-0.23351 -1.06054,-0.28516 -0.40628,-0.0144 -0.73115,0.0252 -0.97657,0.11719 -0.26698,0.0546 -0.59543,0.21789 -0.98437,0.49219 -0.38884,0.27424 -0.69195,0.52448 -0.91016,0.75 -0.21803,0.22543 -0.37401,0.51598 -0.46875,0.86914 -0.0791,0.29432 -0.11498,0.6619 -0.10742,1.10547 0.0446,0.42202 0.10573,0.95963 0.18359,1.61132 0.18697,1.20691 0.42352,2.33772 0.70313,3.4043 -0.0481,0.21765 -0.0891,0.38959 -0.14844,0.67773 -0.17189,0.99488 -0.3509,2.19263 -0.53711,3.59375 -0.18623,1.40113 -0.38619,2.73628 -0.59961,4.00391 -0.1919,1.30495 -0.35032,2.19318 -0.47656,2.66406 -0.19921,0.86128 -0.34314,1.34327 -0.43359,1.44532 -0.0315,0.11761 -0.1343,0.027 -0.30664,-0.27149 -0.30164,-0.52243 -0.67924,-1.52353 -1.13477,-3.00195 -0.39665,-1.46265 -0.81691,-3.30893 -1.25977,-5.54102 -0.30062,-1.46842 -0.57622,-2.67865 -0.82617,-3.6289 -0.27162,-0.98754 -0.55008,-1.77223 -0.83594,-2.35352 -0.28585,-0.58129 -0.61183,-1.01577 -0.97656,-1.30273 -0.34892,-0.34588 -0.79064,-0.63689 -1.32617,-0.875 -0.49242,-0.16303 -1.00909,-0.23916 -1.54883,-0.22657 -0.53977,0.0131 -1.07336,0.12277 -1.60156,0.32813 -0.5282,0.20543 -1.00139,0.50445 -1.42188,0.89648 -0.40478,0.33316 -0.69982,0.72651 -0.88476,1.18164 -0.73593,1.56924 -1.3043,4.16258 -1.70508,7.77735 -0.40073,3.61474 -0.66572,8.54208 -0.79297,14.78515 -0.0441,0.87134 -0.0893,1.39564 -0.13672,1.57227 -0.0474,0.17638 -0.12483,0.17083 -0.23242,-0.0156 -0.35472,-0.44202 -0.74798,-1.50885 -1.17773,-3.20117 -0.42976,-1.69234 -0.86051,-3.90611 -1.29493,-6.64062 -0.32357,-1.85313 -0.61728,-3.34961 -0.8789,-4.49219 -0.22433,-1.16414 -0.48184,-2.0862 -0.77344,-2.76367 -0.25431,-0.69901 -0.57467,-1.20892 -0.96094,-1.53321 -0.37049,-0.38316 -0.8259,-0.74186 -1.36718,-1.07617 -1.25918,-0.71602 -2.46819,-0.74016 -3.625,-0.0723 -1.11949,0.64632 -1.96388,1.85533 -2.53321,3.62695 -0.27965,0.80829 -0.53041,1.92304 -0.7539,3.3457 -0.20772,1.36381 -0.40328,2.91946 -0.58789,4.66797 -0.20616,1.7112 -0.36626,3.54532 -0.48047,5.50196 -0.13589,1.91932 -0.21655,3.80546 -0.24024,5.66015 0.0289,0.48088 0.0144,0.88714 -0.043,1.21875 -0.0573,0.33096 -0.11496,0.48973 -0.17382,0.47461 -0.0589,-0.0158 -0.15599,-0.18383 -0.29102,-0.5039 -0.13503,-0.32008 -0.28694,-0.75492 -0.45508,-1.30469 -0.14658,-0.51243 -0.31822,-1.10973 -0.51367,-1.79297 -0.15813,-0.70478 -0.30686,-1.43949 -0.44922,-2.20313 -0.19121,-0.93445 -0.37092,-1.67681 -0.53906,-2.22656 -0.15237,-0.60863 -0.32564,-1.08017 -0.51953,-1.41601 -0.21545,-0.37317 -0.44434,-0.63959 -0.68555,-0.79883 -0.26276,-0.19649 -0.57066,-0.34276 -0.92383,-0.4375 -0.47089,-0.12624 -0.84043,-0.1621 -1.10742,-0.10742 -0.25121,-0.004 -0.54306,0.0911 -0.8789,0.28515 -0.74632,0.43089 -1.20174,0.89235 -1.36524,1.38477 -0.16355,0.49244 -0.1732,1.29522 -0.0293,2.40625 0.10568,0.81586 0.23194,1.60528 0.36914,2.38281 -0.036,0.17482 -0.0975,0.57437 -0.20507,1.40234 -0.10308,0.85559 -0.16841,1.86353 -0.19532,3.02344 -0.14689,3.02037 -0.37874,5.59163 -0.69531,7.71485 -0.2577,2.13898 -0.57337,3.61562 -0.94922,4.42968 -0.57665,1.32818 -1.03329,2.08944 -1.36914,2.28321 -0.3143,0.2311 -0.83299,0.10668 -1.55664,-0.3711 -0.88446,-0.58396 -1.70533,-1.702 -2.46094,-3.35547 -0.7556,-1.65346 -1.56797,-4.09458 -2.4375,-7.32422 -0.54902,-2.07125 -1.12403,-3.92877 -1.72461,-5.57226 -0.62211,-1.68078 -1.14918,-2.8943 -1.58007,-3.64063 -0.30164,-0.5223 -0.55392,-0.87377 -0.75782,-1.05468 -0.16658,-0.20223 -0.41447,-0.33318 -0.74609,-0.39063 -0.52975,-0.14186 -0.90696,-0.14684 -1.13086,-0.0176 -0.4478,0.25855 -0.84842,0.98678 -1.20117,2.18555 -0.35275,1.19877 -0.62569,2.75075 -0.82031,4.6543 l -0.19336,1.60351 -1.13672,-1.06054 c -1.43308,-1.36182 -2.97258,-2.09132 -4.61914,-2.18555 -0.83405,-0.0658 -1.5438,-0.002 -2.13086,0.1875 -0.54974,0.16814 -1.27034,0.55861 -2.16016,1.17187 -1.59305,1.11877 -2.79574,2.95729 -3.60742,5.51563 -0.83323,2.52102 -1.15903,5.44453 -0.97852,8.77344 0.0981,1.63499 0.32253,3.27285 0.67188,4.91211 0.29049,1.62345 0.65554,3.0308 1.09375,4.2207 0.89797,2.41713 2.07631,4.19971 3.53516,5.34766 1.48039,1.18525 2.99576,1.52791 4.54882,1.02929 0.62438,-0.21122 1.14022,-0.48323 1.54493,-0.8164 0.44202,-0.35473 0.94547,-0.94589 1.51367,-1.77149 0.42471,-0.64325 0.84424,-1.55529 1.25586,-2.73828 0.41161,-1.18299 0.77001,-2.58429 1.07812,-4.20508 0.32966,-1.58347 0.61181,-3.33858 0.84375,-5.26367 0.23193,-1.92511 0.40898,-3.94302 0.53321,-6.05469 0.0716,-0.73786 0.13401,-1.32221 0.18554,-1.75 0.0516,-0.42784 0.10154,-0.5556 0.15039,-0.38476 0.97724,3.41621 2.06082,6.02497 3.25,7.82617 1.24805,1.81694 2.73837,3.02046 4.47266,3.61133 1.75583,0.6282 3.39971,0.50051 4.92969,-0.38282 1.52997,-0.88335 2.62909,-2.33861 3.29882,-4.36718 0.14773,-0.43359 0.28921,-1.13803 0.42383,-2.11133 0.17194,-0.99487 0.32794,-2.10358 0.4668,-3.32813 0.13886,-1.22454 0.25182,-2.53436 0.3418,-3.92968 0.0561,-0.52041 0.0825,-0.98184 0.1289,-1.48243 0.27463,0.74291 0.55977,1.3726 0.85547,1.88477 0.77561,1.34337 1.75451,2.2212 2.9375,2.63281 1.14568,0.43316 2.10282,0.27808 2.86914,-0.46289 0.41999,-0.39247 0.74553,-1.25076 0.97461,-2.57617 0.25079,-1.28917 0.41129,-2.9492 0.48242,-4.98047 0.15648,-4.46881 0.39324,-8.23741 0.71094,-11.30664 0.33347,-3.12809 0.73216,-5.49859 1.19531,-7.10937 0.22658,-0.72792 0.36684,-1.13252 0.41992,-1.21289 0.0531,-0.0804 0.12885,0.051 0.22657,0.39257 0.0331,0.22967 0.18581,1.01271 0.45898,2.34766 0.31049,1.31339 0.61389,2.82917 0.91016,4.54883 0.32359,1.85313 0.5903,3.3903 0.79883,4.61328 0.22431,1.16414 0.41812,2.14826 0.58203,2.94922 0.22276,0.81673 0.43916,1.53578 0.65039,2.16015 0.24854,0.60284 0.50921,1.22509 0.7793,1.86524 1.38194,3.08303 2.98391,4.86848 4.80859,5.35742 0.44936,0.0887 0.8979,0.005 1.3457,-0.25391 0.44778,-0.25852 0.83185,-0.62888 1.15039,-1.11132 0.26558,-0.40202 0.49538,-1.38135 0.69141,-2.9375 0.2177,-1.51885 0.34672,-3.40899 0.38476,-5.66993 0.1534,-5.16359 0.34304,-9.22803 0.57032,-12.19531 0.24307,-3.02614 0.5934,-5.39265 1.05078,-7.09961 0.18925,-0.70629 0.34484,-1.17091 0.46679,-1.39062 0.10029,-0.25701 0.19313,-0.30932 0.2793,-0.16016 0.0804,0.0531 0.25203,0.65039 0.51367,1.79297 0.26162,1.14258 0.55296,2.46689 0.875,3.97266 0.49752,2.49904 0.9802,4.5831 1.44727,6.2539 0.46707,1.67078 0.94417,3.01403 1.42969,4.02735 0.50706,1.05063 1.04466,1.80953 1.61328,2.27734 0.59016,0.50512 1.27566,0.83042 2.05664,0.97656 0.60437,0.0988 1.17868,0.0163 1.72265,-0.24805 0.54398,-0.26431 1.00142,-0.67738 1.37305,-1.24023 0.49356,-0.78249 0.95633,-2.22081 1.39063,-4.3125 0.4283,-1.91918 0.86956,-4.66163 1.32226,-8.03125 0.48475,1.03559 1.01921,1.95979 1.61133,2.75391 0.90333,1.21988 1.90555,2.13633 3.00391,2.74609 1.09835,0.60976 2.27116,0.87587 3.52148,0.80078 2.15322,-0.14853 3.83104,-1.46395 5.0332,-3.94922 1.22369,-2.44792 2.16008,-6.47159 2.8086,-12.07031 0.0227,-0.20312 0.0321,-0.29463 0.0527,-0.48047 0.4701,0.78572 0.88459,1.43903 1.19922,1.84766 0.38201,0.57552 0.78744,1.06199 1.2168,1.46094 1.47552,1.43584 2.91788,2.29541 4.32422,2.57812 h 0.002 c 0.46977,0.12589 0.84293,0.21045 1.11523,0.25195 0.33159,0.0575 0.60249,0.0993 0.81641,0.125 0.25121,0.004 0.46393,-0.0195 0.63477,-0.0684 0.22967,-0.0333 0.49648,-0.086 0.80078,-0.16211 0.81673,-0.22279 1.43702,-0.48346 1.86328,-0.77929 0.48511,-0.28009 1.03725,-0.74756 1.6543,-1.40235 0.54243,-0.6117 1.0418,-1.29764 1.49804,-2.05859 0.45627,-0.76097 0.87384,-1.67496 1.25391,-2.74023 0.43893,-1.0495 0.82873,-2.26904 1.16992,-3.66016 0.36276,-1.35383 0.74007,-2.94086 1.13281,-4.75977 0.15181,-0.7675 0.25993,-1.24527 0.38477,-1.83593 1.30711,3.76697 3.04997,5.96399 5.23242,6.58008 0.61027,0.19502 1.03022,0.27519 1.25977,0.24218 0.26698,-0.0547 0.70185,-0.20663 1.30468,-0.45508 v -0.002 c 0.61861,-0.3074 1.11675,-0.69348 1.49414,-1.16015 0.43626,-0.4509 0.82717,-1.19846 1.16993,-2.24219 0.36429,-1.00639 0.70532,-2.39798 1.02343,-4.17383 0.37697,-1.76005 0.80469,-4.12094 1.28321,-7.08398 0.17204,-0.99485 0.34378,-1.98951 0.51562,-2.98438 0.18777,-1.05373 0.35184,-2.01933 0.49219,-2.89648 0.17769,-0.89868 0.32285,-1.6805 0.4375,-2.34375 0.15219,-0.68478 0.25726,-1.19183 0.31445,-1.52344 0.27813,-1.15568 0.60259,-2.18938 0.97266,-3.09961 0.37006,-0.91024 0.70342,-1.4507 1.00195,-1.62305 0.2239,-0.12928 0.57648,0.0904 1.05469,0.66016 0.51553,0.54821 0.94068,1.19907 1.27539,1.95117 0.11926,0.37894 0.31594,0.93555 0.5918,1.67188 0.2917,0.67746 0.54275,1.32874 0.7539,1.95312 0.21123,0.62438 0.49203,1.58316 0.83985,2.875 0.36356,1.23298 0.69926,2.50495 1.00976,3.81836 0.34779,1.29184 0.65038,2.46141 0.90625,3.50781 0.25479,1.0465 0.38779,1.66517 0.40039,1.85742 -0.01,0.15507 -0.30462,0.72445 -0.88281,1.70508 -0.57819,0.98064 -1.27955,2.13129 -2.10742,3.45508 -0.42469,0.64325 -0.86804,1.2981 -1.33008,1.96289 -0.40315,0.68057 -0.8001,1.33144 -1.1875,1.95313 -0.36583,0.65902 -0.71452,1.25947 -1.04883,1.80078 -0.29702,0.51976 -0.52233,0.94777 -0.67578,1.28515 -0.76324,1.43574 -1.34604,2.84143 -1.74609,4.2168 -0.34155,1.39112 -0.51449,2.68561 -0.51953,3.88281 -0.005,1.19723 0.16546,2.26844 0.51172,3.21289 0.38357,0.92291 0.94049,1.67018 1.66992,2.24414 0.52553,0.39323 1.18969,0.68181 1.99218,0.86524 0.86138,0.19931 1.69523,0.26504 2.50196,0.19726 0.6144,-0.0562 1.26003,-0.22985 1.9375,-0.52148 0.71478,-0.31317 1.40441,-0.71133 2.07031,-1.19531 0.70324,-0.50553 1.34603,-1.07574 1.92578,-1.70899 0.60127,-0.59593 1.12201,-1.2432 1.5625,-1.94531 0.73746,-1.22185 1.33722,-2.81329 1.79883,-4.77148 0.48312,-1.92086 0.74522,-3.9622 0.78906,-6.12696 0.03,-0.46513 -0.018,-1.10914 -0.14453,-1.93164 -0.0678,-0.80673 -0.17051,-1.71754 -0.30859,-2.73242 -0.11654,-0.97754 -0.27568,-2.02945 -0.47852,-3.15625 -0.16539,-1.14837 -0.36925,-2.2756 -0.60937,-3.38086 l -0.6543,-3.20508 1.10351,-2.35351 c 0.52355,-1.24763 1.02539,-2.53319 1.50586,-3.85547 0.50203,-1.28494 0.90346,-2.48516 1.20313,-3.60352 0.32123,-1.08104 0.55503,-2.01202 0.70117,-2.79297 0.12422,-0.81819 0.12145,-1.34045 -0.008,-1.56445 -0.34472,-0.59706 -0.79768,-0.73333 -1.35742,-0.41016 -0.11205,0.0646 -0.2564,0.37253 -0.43555,0.92383 -0.16363,0.49242 -0.33251,1.0615 -0.50586,1.70899 -0.15196,0.68477 -0.39177,1.52099 -0.71875,2.50586 -0.31121,0.92601 -0.63405,1.83201 -0.9668,2.7207 -0.33275,0.88869 -0.62502,1.63024 -0.8789,2.22461 -0.25394,0.59447 -0.42158,0.86566 -0.50196,0.8125 -0.0804,-0.0531 -0.21456,-0.37192 -0.40429,-0.95899 -0.18971,-0.58706 -0.37504,-1.25204 -0.55469,-1.99414 -0.27162,-0.98756 -0.54641,-1.84961 -0.82227,-2.58593 -0.26015,-0.79519 -0.51327,-1.49483 -0.76171,-2.09766 -0.27009,-0.64015 -0.55579,-1.22171 -0.85743,-1.74414 -0.28585,-0.58129 -0.59088,-1.15119 -0.91406,-1.71094 -0.25844,-0.44782 -0.4817,-0.79163 -0.66992,-1.03125 -0.18802,-0.23967 -0.35487,-0.44238 -0.5,-0.60742 -0.16668,-0.20233 -0.34883,-0.34503 -0.54688,-0.42969 -0.16075,-0.10608 -0.35059,-0.21984 -0.57031,-0.34179 -0.69634,-0.34437 -1.49553,-0.47983 -2.39844,-0.40625 -0.88715,0.0146 -1.70484,0.23707 -2.45117,0.66796 -0.63438,0.36627 -1.18252,0.88209 -1.64453,1.54688 -0.44626,0.60591 -0.86386,1.51797 -1.25391,2.73828 -0.41161,1.18302 -0.81029,2.73335 -1.19726,4.64844 -0.387,1.91508 -0.81268,4.32432 -1.27539,7.22851 -0.682,4.07564 -1.21859,7.02287 -1.61133,8.8418 -0.35555,1.79749 -0.628,2.74983 -0.81445,2.85742 -0.18666,0.10779 -0.40346,0.0328 -0.65039,-0.22265 -0.24698,-0.25542 -0.61774,-0.81165 -1.11328,-1.66993 -1.09876,-1.90314 -1.9595,-4.34222 -2.58204,-7.3164 -0.29472,-1.37225 -0.59088,-2.27101 -0.88671,-2.69727 -0.29587,-0.42638 -0.8033,-0.70371 -1.52539,-0.83398 -0.44937,-0.0879 -0.77821,-0.0976 -0.98633,-0.0274 -0.22967,0.0331 -0.58514,0.23705 -1.06446,0.61329 -0.3143,0.2313 -0.59807,0.47182 -0.85351,0.71875 -0.23972,0.18817 -0.37671,0.34131 -0.4082,0.45898 -0.0688,0.13926 -0.0524,0.55318 0.0469,1.24219 0.0777,0.65171 0.20908,1.3961 0.39453,2.23437 0.0478,0.21583 0.12075,0.44863 0.17383,0.66797 -0.1335,0.20279 -0.23359,0.44802 -0.29492,0.74609 -0.0632,0.23544 -0.16831,0.74247 -0.31446,1.52344 -0.13046,0.72209 -0.28727,1.48459 -0.4707,2.28711 -0.64776,3.3593 -1.38584,6.17551 -2.21484,8.44531 -0.80746,2.30713 -1.58733,3.8003 -2.33789,4.48243 -0.25552,0.24592 -0.47963,0.37607 -0.67188,0.38867 -0.17081,0.0489 -0.49198,0.009 -0.96289,-0.11719 -1.17722,-0.31544 -2.31252,-1.07682 -3.4082,-2.28516 -1.07414,-1.17104 -2.00419,-2.65056 -2.78711,-4.4375 -0.55602,-1.22146 -0.87117,-1.98283 -0.94727,-2.28711 -0.0977,-0.34169 -0.0191,-0.63588 0.23633,-0.88281 0.27122,-0.30586 0.57552,-0.85594 0.91406,-1.64843 0.33852,-0.79252 0.68069,-1.71018 1.02344,-2.75391 0.32121,-1.08105 0.62034,-2.19979 0.89844,-3.35547 0.27822,-1.15568 0.50394,-2.23172 0.67578,-3.22656 0.10885,-0.75944 0.19955,-1.63202 0.27539,-2.6211 0.11313,-1.01064 0.18599,-2.04954 0.21875,-3.11328 0.033,-1.06371 0.048,-2.11601 0.043,-3.1582 -0.005,-1.04217 -0.0416,-1.96671 -0.10938,-2.77344 -0.33595,-4.63229 -1.116,-8.13737 -2.33984,-10.51562 -1.24535,-2.41555 -2.87675,-3.56261 -4.89648,-3.44141 z m 1.66015,2.84375 c 0.17256,0.0403 0.39372,0.26236 0.66406,0.66602 0.37627,0.47934 0.72403,1.12458 1.04297,1.93554 0.63789,1.62192 1.11056,3.56094 1.41993,5.82032 0.30941,2.2594 0.44467,4.64602 0.40234,7.1582 -0.0265,2.45329 -0.22769,4.9065 -0.60156,7.36133 -0.39544,2.41753 -0.94929,4.60463 -1.66211,6.55859 -0.18507,0.45511 -0.35437,0.85009 -0.50781,1.1875 -0.15345,0.33739 -0.26722,0.52918 -0.3418,0.57227 -0.11193,0.0646 -0.2852,-0.40889 -0.51953,-1.41797 -0.21864,-1.06795 -0.44025,-2.35761 -0.66602,-3.86914 -0.22576,-1.51151 -0.42877,-3.11072 -0.60742,-4.79883 -0.20006,-1.72543 -0.33702,-3.2126 -0.41211,-4.46289 -0.13128,-1.86469 -0.1667,-3.7351 -0.10547,-5.61133 0.0396,-1.91355 0.1283,-3.65658 0.26563,-5.22852 0.17451,-1.59347 0.38418,-2.9093 0.63086,-3.94726 0.26235,-1.09682 0.54326,-1.73195 0.84179,-1.9043 0.0466,-0.0269 0.0987,-0.033 0.15625,-0.0195 z m -21.22851,25.56836 c -0.60735,0.0428 -1.23114,0.22165 -1.8711,0.53516 -0.82673,0.37782 -1.44856,0.81064 -1.86328,1.29882 -0.37737,0.46668 -0.73168,1.14451 -1.06445,2.03321 -0.35855,1.10259 -0.45858,2.18025 -0.29883,3.23242 0.19699,1.03063 0.57053,1.93501 1.11914,2.71289 0.58593,0.75633 1.32624,1.34842 2.2207,1.77734 0.87292,0.39156 1.81319,0.47066 2.82227,0.23633 0.70478,-0.15813 1.35206,-0.45754 1.94336,-0.89844 0.79365,-0.60747 1.38769,-1.34778 1.7793,-2.2207 0.40738,-0.93178 0.61019,-1.87041 0.61132,-2.81641 0.001,-0.94601 -0.20801,-1.87011 -0.6289,-2.77148 -0.42089,-0.90137 -1.04354,-1.63689 -1.86914,-2.20508 -0.92164,-0.68067 -1.88815,-0.98537 -2.90039,-0.91406 z m 0.92578,2.2793 c 0.13349,-0.0275 0.36195,0.0649 0.68359,0.27734 0.64325,0.42472 1.1148,1.07159 1.41797,1.94141 0.30312,0.86982 0.34573,1.71695 0.125,2.54101 -0.14183,0.52974 -0.32483,0.85902 -0.54883,0.98828 -0.26121,0.14993 -0.54173,0.13801 -0.84179,-0.0371 -0.32164,-0.21235 -0.63957,-0.50177 -0.95118,-0.86914 -0.27442,-0.38893 -0.51339,-0.84679 -0.71875,-1.375 -0.2052,-0.52756 -0.33424,-1.05077 -0.38476,-1.56836 0,0 0,-0.002 0,-0.002 -0.0288,-0.47977 -5.4e-4,-0.81984 0.084,-1.01758 0.0847,-0.19802 0.24671,-0.3899 0.48633,-0.57812 0.27707,-0.20989 0.49348,-0.31086 0.64844,-0.30078 z m 61.3789,1.5039 c 0.10759,0.18659 0.1959,0.68351 0.26368,1.49024 0.12648,0.82252 0.23124,1.78169 0.3164,2.87695 0.14388,1.11106 0.23167,2.25403 0.26367,3.42969 0.0315,1.17568 0.0552,2.20857 0.0703,3.0957 -0.0184,0.65746 -0.0806,1.36557 -0.18946,2.125 -0.10877,0.75941 -0.2656,1.52191 -0.4707,2.28711 -0.16776,0.74366 -0.36925,1.43082 -0.60156,2.0625 -0.23205,0.63098 -0.47327,1.1198 -0.72266,1.46289 -0.61536,1.00137 -1.38816,1.64631 -2.3164,1.9336 -0.90717,0.32478 -1.83772,0.26503 -2.79102,-0.17969 -1.31213,-0.63549 -1.98066,-1.96669 -2.00586,-3.99219 0.0338,-2.00973 0.72468,-4.34801 2.07031,-7.01562 0.38163,-0.71789 0.89592,-1.63597 1.54297,-2.75586 0.68437,-1.14147 1.35304,-2.22433 2.00586,-3.24805 0.65283,-1.02372 1.21751,-1.89744 1.69531,-2.62109 0.53665,-0.70783 0.82606,-1.02576 0.86914,-0.95118 z m -127.71289,6.25 c -0.17908,-0.009 -0.34675,0.0445 -0.5039,0.16016 -0.27699,0.20969 -0.76103,0.83755 -1.45117,1.88281 -0.51511,0.7452 -0.9875,1.39043 -1.41797,1.9375 -0.43048,0.54705 -0.92055,1.07822 -1.46875,1.59375 -0.53243,0.45667 -1.15028,0.93784 -1.85352,1.44336 -0.70324,0.50553 -1.5839,1.08983 -2.64453,1.75195 -1.13526,0.70519 -2.18031,1.30926 -3.13477,1.81055 -0.95445,0.50132 -1.93019,0.96397 -2.92773,1.39063 -0.99755,0.42665 -2.07398,0.84894 -3.22656,1.26562 -1.17413,0.37934 -2.56581,0.81012 -4.17774,1.29297 -1.38225,0.44976 -2.59413,0.85107 -3.63476,1.20312 -1.06218,0.31471 -2.03628,0.6536 -2.92188,1.01563 -0.86982,0.30317 -1.71819,0.64368 -2.54492,1.02148 -0.82673,0.37781 -1.72908,0.79772 -2.70508,1.26172 -3.22653,1.5643 -6.06951,3.40475 -8.52929,5.52149 -2.48134,2.07942 -4.53402,4.38417 -6.15821,6.91406 -1.62419,2.52989 -2.82288,5.23691 -3.5957,8.12109 -0.73549,2.86267 -0.99157,5.82278 -0.76953,8.87891 0.0519,0.86559 0.12729,1.64302 0.22656,2.33203 0.0777,0.65172 0.19334,1.28202 0.3457,1.89063 0.16813,0.54974 0.37646,1.12568 0.625,1.72851 0.227,0.56552 0.52641,1.2128 0.89844,1.94336 0.83024,1.61038 1.79095,2.97182 2.88086,4.08399 1.10568,1.0533 2.16922,1.73362 3.19141,2.03906 1.05949,0.28389 1.6294,-0.0212 1.71093,-0.91406 -0.0115,-0.19223 -0.10866,-0.36029 -0.29101,-0.50391 -0.16659,-0.20236 -0.51925,-0.47038 -1.06055,-0.80469 -1.08259,-0.6686 -1.95467,-1.36097 -2.61523,-2.07422 -0.66057,-0.71322 -1.29927,-1.68661 -1.91406,-2.92382 -0.89488,-1.72234 -1.47356,-3.50247 -1.73829,-5.33985 -0.24905,-1.89621 -0.24036,-3.99111 0.0274,-6.28515 0.31347,-2.81802 0.99992,-5.37875 2.05859,-7.68165 1.07444,-2.36175 2.57982,-4.62461 4.51563,-6.78711 0.74478,-0.7783 1.43561,-1.47627 2.07422,-2.09374 0.6386,-0.61748 1.3278,-1.18973 2.06835,-1.7168 0.71902,-0.56439 1.51658,-1.12336 2.39063,-1.67774 0.87405,-0.55438 1.89977,-1.14676 3.07812,-1.77734 1.14104,-0.60903 2.16309,-1.12403 3.06446,-1.54492 0.91714,-0.47975 1.83685,-0.91135 2.75976,-1.29492 0.92291,-0.3836 1.93371,-0.74383 3.03321,-1.08008 1.11526,-0.39511 2.47987,-0.83356 4.09179,-1.31641 5.65251,-1.67133 10.22084,-3.53905 13.70703,-5.60156 3.50197,-2.12137 6.21196,-4.58049 8.12891,-7.37891 0.76479,-1.08835 1.20978,-1.86894 1.33594,-2.33984 0.16349,-0.49242 0.0446,-0.87127 -0.35742,-1.13672 -0.20102,-0.13279 -0.39123,-0.20237 -0.57032,-0.21094 z m -21.61718,19.17774 c -0.49955,0.0396 -1.14198,0.34773 -1.92774,0.92578 -1.3103,1.00528 -2.30741,2.25335 -2.99023,3.74219 -0.70437,1.45154 -1.07565,3.13332 -1.11524,5.04687 -0.0227,0.90868 0.0284,2.07497 0.15235,3.4961 0.16122,1.39955 0.36025,2.95041 0.59765,4.65429 0.27472,1.68232 0.57486,3.44958 0.89844,5.30274 0.32358,1.85312 0.69148,3.65504 1.10547,5.40625 l 0.66211,2.82812 -2.8457,1.79297 c -0.986,0.61901 -1.83959,1.20905 -2.5586,1.77344 -0.71901,0.56438 -1.36752,1.1636 -1.94726,1.79687 -0.56398,0.57436 -1.08471,1.22361 -1.5625,1.94727 -0.46203,0.66479 -0.92634,1.45509 -1.39258,2.37109 -0.9325,1.83201 -1.58746,3.80269 -1.96289,5.91016 -0.39698,2.07012 -0.51966,4.18076 -0.3711,6.33398 0.127,2.11591 0.50901,4.1596 1.14844,6.12891 0.69829,1.98508 1.63682,3.78178 2.81445,5.39062 3.00006,3.98975 6.26727,5.68424 9.80274,5.08594 0.66747,-0.13659 1.49446,-0.5138 2.48047,-1.13281 1.00754,-0.5817 1.82044,-1.20065 2.4375,-1.85547 0.65438,-0.67631 1.23072,-1.5307 1.72851,-2.56445 0.51934,-0.99641 0.92486,-2.10187 1.21875,-3.31641 0.35275,-1.19876 0.59543,-2.4586 0.72852,-3.7793 0.17038,-1.34226 0.22723,-2.66738 0.16797,-3.97656 -0.0693,-1.15412 -0.2449,-2.61992 -0.52539,-4.39844 -0.22164,-1.76274 -0.49682,-3.61905 -0.82618,-5.56836 -0.29204,-1.97087 -0.62927,-3.89086 -1.01171,-5.75976 -0.38245,-1.86893 -0.74994,-3.49675 -1.10352,-4.88477 -0.0919,-0.24549 -0.12334,-0.42725 -0.0918,-0.54492 0.01,-0.15509 0.11601,-0.31587 0.31836,-0.48242 0.20236,-0.16645 0.5578,-0.37234 1.06446,-0.61524 0.54397,-0.26428 1.33233,-0.62013 2.36718,-1.06835 1.60038,-0.6752 2.98554,-1.42515 4.15235,-2.24805 1.1668,-0.82293 2.01404,-1.6354 2.54492,-2.43945 0.28121,-0.46085 0.44682,-0.78041 0.49414,-0.95704 0.0258,-0.21389 -0.029,-0.4807 -0.16406,-0.80078 -0.1839,-0.49081 -0.42812,-0.69719 -0.73242,-0.62109 -0.30431,0.0762 -0.79274,0.4816 -1.4629,1.2168 -0.4147,0.48819 -0.8605,0.92061 -1.33984,1.29687 -0.46357,0.31741 -1.18016,0.75626 -2.15039,1.31641 -0.55974,0.32317 -1.1683,0.64957 -1.82422,0.97851 -0.61861,0.3074 -1.20017,0.59311 -1.74414,0.85743 -0.50666,0.24274 -0.95686,0.45271 -1.35156,0.63085 -0.41626,0.14085 -0.66569,0.18403 -0.74609,0.13086 -0.0589,-0.0158 -0.20882,-0.45064 -0.45313,-1.30468 -0.20699,-0.87559 -0.46286,-1.92147 -0.76758,-3.13868 -0.30472,-1.21723 -0.61334,-2.48153 -0.92383,-3.79492 -0.31049,-1.31338 -0.56073,-2.43859 -0.75195,-3.37304 -0.16969,-0.89716 -0.3268,-1.90069 -0.4707,-3.01172 -0.12815,-1.16989 -0.22761,-2.33219 -0.29688,-3.48633 -0.0693,-1.15412 -0.11435,-2.2237 -0.13476,-3.20703 0.0169,-1.00485 0.0653,-1.82704 0.14257,-2.46875 0.0715,-0.73787 0.1804,-1.32423 0.32813,-1.75782 0.18504,-0.4551 0.42966,-0.89477 0.73242,-1.31835 0.28121,-0.46098 0.45253,-0.80763 0.51563,-1.04297 0.10051,-0.25704 0.10561,-0.50849 0.0137,-0.75391 -0.21333,-0.49881 -0.57077,-0.72907 -1.07031,-0.68945 z m 27.55859,20.25 c 0.13349,-0.0273 0.41237,0.10934 0.83594,0.41211 0.52553,0.39317 1.03173,0.97034 1.52148,1.73242 0.52706,0.74056 0.8458,1.37814 0.95508,1.91211 0.10915,0.53397 0.12132,1.54753 0.0371,3.03906 -0.0684,1.43267 -0.20595,3.00365 -0.41211,4.71484 -0.16885,1.68965 -0.39507,3.36338 -0.68164,5.02149 -0.26503,1.69542 -0.54237,3.02495 -0.83203,3.98828 -0.21079,0.66903 -0.41832,1.26143 -0.61914,1.77539 -0.17927,0.55131 -0.30623,0.84754 -0.38086,0.89063 -0.48511,0.28016 -1.00747,0.23491 -1.57031,-0.13672 -0.56284,-0.37163 -1.11169,-0.97577 -1.64454,-1.8125 -0.53284,-0.83671 -0.99949,-1.86083 -1.40039,-3.07227 -0.40088,-1.21146 -0.68251,-2.51646 -0.84375,-3.91601 -0.2143,-1.31916 -0.27952,-2.72527 -0.19531,-4.2168 0.1,-1.55039 0.30557,-2.96098 0.61524,-4.23438 0.41006,-1.53038 0.86957,-2.71722 1.3789,-3.55859 0.54666,-0.86292 1.24915,-1.54156 2.10742,-2.03711 0.59707,-0.34479 0.97387,-0.51203 1.12891,-0.50195 z m 147.89453,3.52344 c -0.17908,-0.009 -0.33526,0.002 -0.46875,0.0293 -0.22969,0.0331 -0.64319,0.22172 -1.24023,0.56641 -0.63438,0.36626 -1.21348,0.87442 -1.73438,1.52344 -0.52087,0.64902 -0.96789,1.3793 -1.34375,2.19336 -0.37578,0.81405 -0.64261,1.68901 -0.79883,2.625 -0.17789,0.89869 -0.22982,1.80022 -0.15625,2.70312 0.062,0.71055 0.17367,1.2925 0.33594,1.74609 0.10351,0.4378 0.33115,1.00405 0.68164,1.69727 0.22113,0.46937 0.44643,0.86148 0.67774,1.17578 0.19391,0.33585 0.45786,0.70469 0.79101,1.10938 0.28845,0.35037 0.68506,0.77243 1.1543,1.24218 -0.0782,0.18823 -0.15369,0.35599 -0.2461,0.62305 -0.26388,0.74943 -0.5537,1.71145 -0.86914,2.88867 -1.63872,6.46894 -3.8374,10.84764 -6.5957,13.13672 -2.65214,2.12828 -4.96588,1.99835 -6.94336,-0.39258 l -0.59765,-0.77539 1.11914,-0.64648 c 2.12704,-1.22805 3.69406,-3.59937 4.69921,-7.11524 1.02685,-3.47857 0.97971,-6.18844 -0.14062,-8.1289 -0.66787,-1.15692 -1.80677,-1.79451 -3.41602,-1.91016 -1.72119,-0.0511 -3.46268,0.50816 -5.22656,1.67578 -0.59129,0.4409 -1.0411,0.82494 -1.34961,1.15235 -0.33008,0.29006 -0.71576,0.78617 -1.15625,1.48828 -0.70591,1.10412 -1.24445,2.41106 -1.61718,3.91992 -0.35689,1.44995 -0.52741,2.96494 -0.50977,4.54687 0.0286,0.81144 0.11861,1.60914 0.26562,2.39258 -0.34434,0.45972 -0.74067,1.25407 -1.19335,2.39844 -0.28543,0.71211 -0.54705,1.33558 -0.78516,1.87109 -0.25973,0.49822 -0.42737,0.76942 -0.50195,0.8125 -0.14919,0.0862 -0.32205,-0.21129 -0.51758,-0.89453 -0.0762,-0.3043 -0.27448,-0.73713 -0.59766,-1.29687 -0.28586,-0.58129 -0.59089,-1.15119 -0.91406,-1.71094 -0.68944,-1.1941 -1.33743,-2.01468 -1.94336,-2.46094 -0.59016,-0.50504 -1.35308,-0.83597 -2.28906,-0.99219 -1.26763,-0.21349 -2.58633,4.7e-4 -3.95703,0.64258 -1.37071,0.64209 -2.45564,1.56734 -3.25196,2.77344 -1.13063,1.74738 -1.98197,4.1054 -2.55664,7.07422 -0.5375,2.94727 -0.83424,6.70055 -0.88867,11.25976 -0.0217,0.90868 -0.0451,1.6438 -0.0703,2.20508 -0.003,0.5986 -0.0144,0.87909 -0.0371,0.8418 -0.0648,-0.11195 -0.20134,-0.60681 -0.40821,-1.48242 -0.14805,-0.85982 -0.32652,-1.90007 -0.53515,-3.12305 -0.2084,-1.22298 -0.42236,-2.54363 -0.64258,-3.95898 -0.1829,-1.4369 -0.36016,-2.77697 -0.53125,-4.02149 -0.27056,-1.93355 -0.51793,-3.48236 -0.74219,-4.64648 -0.22427,-1.16412 -0.40602,-1.95484 -0.54687,-2.3711 -0.20551,-0.5283 -0.39003,-0.84509 -0.55078,-0.95117 -0.18235,-0.14344 -0.50764,-0.27806 -0.97852,-0.4043 -0.41217,-0.11036 -0.73335,-0.14824 -0.96289,-0.11523 -0.22967,0.033 -0.55045,0.1672 -0.96094,0.4043 -0.4478,0.25854 -0.81661,0.52249 -1.10937,0.79101 -0.25535,0.24698 -0.45,0.55692 -0.58203,0.93164 -0.11566,0.31585 -0.1669,0.74347 -0.1543,1.28321 0.0131,0.53976 0.0825,1.22242 0.20898,2.04492 0.30754,2.76402 0.76435,5.76114 1.35352,8.96484 -0.0874,0.29281 -0.16118,0.63816 -0.21484,1.05078 -0.41233,3.42239 -0.87152,6.37331 -1.37891,8.85547 -0.48582,2.51949 -0.96549,4.18996 -1.4375,5.00977 -0.20666,0.41794 -0.36469,0.6601 -0.47656,0.72461 -0.11195,0.0637 -0.31508,0.0554 -0.60938,-0.0234 -1.13413,-0.24078 -2.18071,-1.10491 -3.13867,-2.5918 -0.8991,-1.47111 -1.77474,-3.67806 -2.62695,-6.61914 -0.32043,-1.15837 -0.59726,-2.06682 -0.83008,-2.72851 -0.25431,-0.69899 -0.50702,-1.22455 -0.75977,-1.57617 -0.21545,-0.3732 -0.48103,-0.61822 -0.79687,-0.73438 -0.27855,-0.13783 -0.63276,-0.2318 -1.06055,-0.2832 -0.40627,-0.0144 -0.73114,0.0233 -0.97656,0.11523 -0.26699,0.0546 -0.59544,0.21985 -0.98438,0.49414 -0.38886,0.27424 -0.69195,0.52449 -0.91015,0.75 -0.21826,0.22546 -0.37426,0.51403 -0.46875,0.86719 -0.0791,0.2943 -0.11498,0.66386 -0.10742,1.10742 0.0446,0.42202 0.10573,0.95766 0.18359,1.60938 0.16534,1.06725 0.36964,2.07567 0.60742,3.0332 -0.21362,0.5268 -0.46052,1.39593 -0.74414,2.64453 -0.2308,0.97907 -0.52786,2.1462 -0.89062,3.5 -0.36274,1.3538 -0.75612,2.69908 -1.17774,4.03711 -0.36276,1.35383 -0.74856,2.62365 -1.16015,3.80664 -0.35276,1.19877 -0.67558,2.10479 -0.9668,2.7207 -0.41739,1.08682 -0.97002,2.15393 -1.66016,3.19922 -0.6686,1.08259 -1.2663,1.90028 -1.79297,2.45313 -0.43623,0.451 -0.9444,0.69399 -1.52148,0.72851 -0.5182,0.0504 -1.00992,-0.11479 -1.47656,-0.49218 -0.78831,-0.58976 -1.50244,-1.56877 -2.14453,-2.93946 -0.58334,-1.35496 -0.9911,-2.83762 -1.22266,-4.44531 -0.18369,-1.43688 -0.1823,-2.85474 0.004,-4.25586 0.18615,-1.40112 0.48691,-2.64561 0.90429,-3.73242 0.39585,-1.12413 0.88314,-2.00152 1.46289,-2.63477 0.61705,-0.65484 1.28366,-0.96591 2,-0.93164 0.29433,0.0789 0.50349,0.1828 0.62696,0.31055 0.13913,0.0689 0.28858,0.28128 0.44531,0.63867 0.1408,0.41628 0.34074,0.72339 0.60351,0.91992 0.30007,0.17411 0.57692,0.26254 0.82813,0.26758 0.22957,-0.0333 0.43432,-0.15162 0.61523,-0.35547 0.15925,-0.24121 0.19908,-0.56241 0.11719,-0.96289 -0.0935,-0.59283 -0.34047,-1.1474 -0.73828,-1.66406 -0.41935,-0.55398 -0.92913,-1.00541 -1.5293,-1.35547 -0.62168,-0.3873 -1.30321,-0.66422 -2.04687,-0.83203 -0.74366,-0.16781 -1.51945,-0.21817 -2.32617,-0.15039 -1.16989,0.12815 -2.24234,0.59684 -3.2168,1.4082 -0.95869,0.75253 -1.78417,1.77774 -2.47852,3.07422 -0.65705,1.27496 -1.14875,2.75199 -1.47265,4.43164 -0.15463,0.73511 -0.25534,1.49573 -0.31446,2.27539 -0.009,0.005 -0.0167,0.007 -0.0254,0.0117 -0.14926,0.0862 -0.36487,0.53353 -0.64453,1.3418 -0.26391,0.74943 -0.5537,1.71145 -0.86914,2.88867 -1.6387,6.46894 -3.83738,10.84763 -6.5957,13.13672 -2.65215,2.12828 -4.96589,1.99835 -6.94336,-0.39258 l -0.59766,-0.77539 1.1211,-0.64648 c 2.12701,-1.22805 3.69208,-3.59935 4.69726,-7.11524 1.02682,-3.47858 0.97968,-6.18845 -0.14062,-8.12891 -0.6679,-1.15691 -1.80482,-1.7945 -3.41406,-1.91015 -1.7212,-0.0511 -3.46467,0.50816 -5.22852,1.67578 -0.5913,0.44089 -1.04107,0.82494 -1.34961,1.15234 -0.33008,0.29007 -0.71578,0.78617 -1.15625,1.48828 -0.70591,1.10416 -1.24443,2.41109 -1.61719,3.91993 -0.35689,1.44997 -0.5274,2.96494 -0.50976,4.54687 0.0264,0.74752 0.10752,1.48326 0.23437,2.20703 -0.0348,0.0338 -0.0702,0.0635 -0.10156,0.10547 -0.14362,0.18235 -0.26854,1.34906 -0.37109,3.49805 -0.0869,2.09015 -0.3309,5.24173 -0.73438,9.45508 -0.22037,2.11744 -0.46951,3.92659 -0.74609,5.42968 -0.23925,1.48153 -0.52263,2.71633 -0.84961,3.70118 -0.30544,1.02218 -0.66137,1.82381 -1.07031,2.4082 -0.40892,0.58439 -0.89337,1.03818 -1.45313,1.36133 -0.6717,0.3877 -1.51843,0.6044 -2.53906,0.64648 -0.96178,0.0576 -1.9234,-0.06 -2.88672,-0.34961 -0.88869,-0.33275 -2.10496,-0.97401 -3.64844,-1.92383 -1.48462,-0.93404 -3.02893,-2.05615 -4.63281,-3.36914 -1.60389,-1.31298 -3.1482,-2.43704 -4.63281,-3.37109 -1.46885,-0.99291 -2.57871,-1.62088 -3.32813,-1.88477 -0.33739,-0.15334 -0.63364,-0.28032 -0.89062,-0.38086 -0.25699,-0.10053 -0.40809,-0.18908 -0.45118,-0.26367 -0.0431,-0.0746 0.12661,-0.2975 0.50977,-0.66797 0.38316,-0.37049 0.85994,-0.79327 1.42969,-1.27148 1.08062,-0.9722 2.16718,-2.02316 3.25781,-3.15039 1.06908,-1.16452 2.0856,-2.37395 3.05273,-3.62891 0.96714,-1.25495 1.85783,-2.51436 2.66993,-3.77929 0.84941,-1.28651 1.58338,-2.55716 2.20312,-3.81055 0.36007,-0.7552 0.7333,-1.61684 1.11914,-2.58594 0.3643,-1.00641 0.69847,-2.02078 1.00391,-3.04297 0.30543,-1.02216 0.55651,-2.01314 0.75,-2.9707 0.23081,-0.9791 0.38159,-1.83635 0.45312,-2.57422 0.16308,-1.78583 0.12004,-3.6272 -0.1289,-5.52344 -0.21164,-1.91778 -0.5912,-3.73902 -1.13868,-5.46289 -0.5317,-1.78273 -1.19902,-3.41178 -2.00195,-4.88867 -0.76561,-1.49843 -1.63124,-2.74017 -2.59765,-3.72461 -2.36218,-2.3679 -4.70926,-3.50168 -7.03907,-3.40039 -2.31403,0.0424 -4.44644,1.3492 -6.39648,3.91797 -1.26989,1.67851 -2.36339,3.87656 -3.28125,6.5957 -0.9394,2.68185 -1.69036,5.7766 -2.25195,9.28516 -0.54584,3.44972 -0.89668,7.23602 -1.05469,11.35742 -0.15802,4.1214 -0.0821,8.43089 0.22656,12.92969 0.14432,2.40443 0.37717,5.17964 0.70117,8.32617 0.30246,3.10922 0.62508,6.20722 0.96485,9.29492 0.37708,3.06611 0.73966,5.89327 1.08789,8.47852 0.38554,2.5637 0.73247,4.50104 1.04297,5.81445 0.0603,0.36316 0.0998,0.68999 0.11718,0.97852 0.0546,0.26701 0.055,0.4411 0.002,0.52148 -0.0531,0.0804 -0.18854,0.0594 -0.40821,-0.0625 -0.18236,-0.1435 -0.4092,-0.36156 -0.67773,-0.6543 -0.24699,-0.25544 -0.52627,-0.56815 -0.83789,-0.93554 -0.25278,-0.35163 -0.47603,-0.6954 -0.66992,-1.03125 -0.40935,-0.70902 -0.80588,-1.52436 -1.18946,-2.44727 -0.34626,-0.94445 -0.73593,-2.13702 -1.16992,-3.57812 -0.41244,-1.4038 -0.86334,-3.13395 -1.35351,-5.18946 -0.4744,-2.11434 -1.05299,-4.66629 -1.73438,-7.65625 -0.9057,-4.15408 -1.74986,-7.77119 -2.5332,-10.85156 -0.74603,-3.10188 -1.46609,-5.77149 -2.16016,-8.00781 -0.69407,-2.2363 -1.38715,-4.1245 -2.07812,-5.66602 -0.67521,-1.60038 -1.4058,-2.99523 -2.19141,-4.18359 -2.10983,-3.30968 -4.67259,-4.86463 -7.69141,-4.66406 -1.34648,0.0808 -2.76311,0.60063 -4.25,1.55859 -1.50842,0.92064 -2.79207,2.05911 -3.84961,3.41602 -1.28566,1.73737 -2.31384,3.74957 -3.08398,6.03515 -0.77014,2.28558 -1.24622,4.65044 -1.42773,7.09375 -0.14422,2.42175 7.3e-4,4.82577 0.43359,7.21289 0.44862,2.32824 1.20017,4.40587 2.25586,6.23438 0.64634,1.11949 1.39349,2.15648 2.24219,3.10937 0.82714,0.91561 1.63554,1.66808 2.42382,2.25781 0.80406,0.53098 1.5089,0.84655 2.11329,0.94532 0.60436,0.0988 0.97718,-0.11675 1.11914,-0.64649 0.0788,-0.2943 -0.005,-0.56877 -0.25196,-0.82422 -0.20967,-0.27698 -0.63605,-0.62804 -1.27929,-1.05273 -0.35895,-0.19082 -0.7426,-0.46845 -1.15039,-0.83008 -0.40781,-0.36162 -0.81885,-0.77074 -1.23243,-1.22851 -0.41357,-0.45781 -0.80929,-0.92691 -1.18554,-1.40625 -0.37626,-0.47935 -0.69264,-0.94283 -0.95118,-1.39063 -1.19072,-2.14856 -1.93175,-4.68079 -2.22265,-7.59765 -0.29091,-2.91689 -0.0929,-5.89234 0.59375,-8.92579 0.55046,-2.40753 1.30785,-4.41132 2.27344,-6.01367 0.96558,-1.60232 2.10213,-2.78109 3.4082,-3.53515 0.33585,-0.19405 0.59662,-0.34554 0.7832,-0.45313 0.18659,-0.10658 0.37601,-0.16514 0.56836,-0.17773 0.17081,-0.0489 0.34491,-0.0493 0.52149,-0.002 0.19235,-0.0116 0.43616,0.0208 0.73047,0.0996 0.82405,0.2208 1.55433,0.66977 2.19335,1.34571 0.67634,0.65436 1.40213,1.65269 2.17774,2.99609 0.62479,1.08218 1.20022,2.29365 1.72461,3.63281 0.5617,1.31762 1.13027,2.90436 1.70508,4.76172 0.55325,1.82004 1.13674,3.99477 1.75195,6.52539 0.61521,2.5306 1.29735,5.52141 2.04492,8.9707 0.77489,3.58279 1.49413,6.72436 2.1582,9.42579 0.66407,2.7014 1.31565,5.03652 1.95508,7.00585 0.63944,1.96932 1.2584,3.60237 1.85742,4.89844 0.59903,1.29608 1.22045,2.33141 1.86524,3.10352 0.89755,1.1237 1.99452,2.03219 3.29101,2.72656 1.35535,0.71025 2.53412,1.02468 3.53321,0.94531 0.71056,-0.062 1.28649,-0.27028 1.72851,-0.625 0.46358,-0.31738 0.72558,-0.76675 0.78711,-1.34961 0.0631,-0.23544 0.0562,-0.67838 -0.0215,-1.33007 -0.0404,-0.67326 -0.1504,-1.38095 -0.33008,-2.12305 -0.54213,-2.9211 -1.09167,-6.28552 -1.64844,-10.09375 -0.51944,-3.82977 -0.97147,-7.67414 -1.35742,-11.53125 -0.4075,-3.8944 -0.73737,-7.60945 -0.98828,-11.14649 -0.25104,-3.537 -0.37216,-6.504 -0.36133,-8.89843 0.003,-4.1314 0.2143,-8.03341 0.63086,-11.70703 0.39501,-3.71092 1.01747,-7.15548 1.86914,-10.33399 1.49832,-5.59178 3.28788,-8.73928 5.36914,-9.44336 2.05972,-0.74137 4.30765,0.99615 6.74219,5.21289 1.93901,3.35849 3.02135,7.08726 3.24805,11.18555 0.0693,1.15414 0.0507,2.2838 -0.0566,3.39062 -0.10732,1.1068 -0.31934,2.24856 -0.63477,3.42579 -0.29966,1.11836 -0.70111,2.32053 -1.20313,3.60546 -0.52356,1.24763 -1.17412,2.61866 -1.95312,4.11329 -0.65706,1.27493 -1.32735,2.48353 -2.01172,3.625 -0.6686,1.08258 -1.38561,2.1675 -2.15039,3.25586 -0.749,1.02951 -1.58409,2.08375 -2.50391,3.1621 -0.8825,1.05684 -1.87602,2.17915 -2.98242,3.36524 -0.97868,1.06258 -1.60338,1.91901 -1.87304,2.57226 -0.2912,0.61594 -0.34928,1.42076 -0.17383,2.41407 0.12659,0.8225 0.40464,1.43309 0.83398,1.83203 0.46667,0.3774 1.369,0.77762 2.70703,1.19922 1.20454,0.44893 2.42644,1.0128 3.66407,1.6914 1.25917,0.71592 2.78978,1.77231 4.59179,3.16992 2.53144,1.97158 4.7996,3.27384 6.80664,3.90626 2.06591,0.64821 4.25384,0.73008 6.56055,0.24414 2.59525,-0.50326 4.56328,-1.79037 5.90625,-3.85938 1.40183,-2.05322 2.35191,-5.18907 2.85156,-9.4082 h 0.002 c 0.28933,-2.25671 0.50872,-4.37336 0.66015,-6.35156 0.15143,-1.97818 0.24018,-3.72125 0.26563,-5.22852 0.0175,-0.30772 0.0239,-0.54808 0.0371,-0.83008 0.35264,0.61861 0.76396,1.19858 1.24023,1.73438 1.05257,1.1337 2.33693,1.9334 3.85156,2.40234 1.51461,0.46899 3.00219,0.50605 4.46485,0.10938 2.1086,-0.57059 4.0613,-1.79768 5.85937,-3.68165 1.85696,-1.86819 3.39493,-4.24715 4.61133,-7.13867 0.32275,-0.73363 0.66296,-1.65327 1.02148,-2.75586 0.31162,-0.95833 0.58136,-1.91321 0.82032,-2.86718 0.17936,0.89482 0.4125,1.73201 0.70703,2.50781 0.5575,1.56883 1.30138,2.8573 2.23047,3.86328 0.89179,1.02755 1.92833,1.74659 3.11133,2.1582 1.20453,0.44891 2.50464,0.54452 3.89843,0.28711 1.6608,-0.31204 3.13467,-1.16275 4.42188,-2.55273 1.2872,-1.38999 2.52415,-3.4723 3.70898,-6.2461 0.20082,-0.51399 0.45433,-1.28252 0.75977,-2.30468 0.36429,-1.00642 0.73108,-2.13691 1.09961,-3.39453 0.39007,-1.22031 0.74685,-2.4978 1.07226,-3.83008 0.3843,-1.31649 0.70836,-2.52235 0.97071,-3.61914 0.0544,-0.22745 0.0775,-0.37013 0.12695,-0.58399 0.58388,1.42054 1.25026,2.6546 2.01172,3.67578 0.90333,1.21991 1.90555,2.13441 3.0039,2.74414 1.09836,0.60979 2.27117,0.87782 3.52149,0.80274 2.15322,-0.14856 3.83106,-1.46593 5.0332,-3.95117 1.04434,-2.08914 1.8668,-5.39731 2.49219,-9.78125 0.53538,2.43963 1.11675,4.95097 1.79101,7.60742 0.60367,2.33827 1.23552,4.51095 1.89649,6.51758 0.68253,2.04394 1.34821,3.79874 1.99609,5.26562 0.63212,1.52575 1.24424,2.71585 1.83594,3.56836 0.61324,0.88983 1.15205,1.34892 1.61719,1.37891 h 0.002 c 1.06943,0.12885 1.57686,-0.41395 1.52344,-1.62696 -0.033,-0.22967 -0.0842,-0.62222 -0.15625,-1.17773 -0.0877,-0.49666 -0.16817,-1.02261 -0.24024,-1.57813 -0.12656,-0.82252 -0.28973,-1.92276 -0.48828,-3.30078 -0.17708,-1.34072 -0.36035,-2.77749 -0.54883,-4.31054 -0.16708,-1.49576 -0.34076,-2.96157 -0.52343,-4.39844 -0.14539,-1.45845 -0.25096,-2.71745 -0.31446,-3.77539 -0.20888,-2.51639 -0.29989,-4.99981 -0.27343,-7.45313 0.048,-2.41597 0.1743,-4.6543 0.3789,-6.71289 0.24194,-2.08012 0.5761,-3.91466 1.00196,-5.5039 0.40428,-1.62659 0.89846,-2.88117 1.48242,-3.76563 0.49358,-0.78246 0.94898,-1.24391 1.36523,-1.38476 0.39471,-0.17822 0.88039,-0.1116 1.45899,0.20117 0.40204,0.26542 0.83843,0.75959 1.30664,1.48437 0.44666,0.68747 0.87223,1.51243 1.27734,2.47266 0.38357,0.92291 0.72448,1.94537 1.02344,3.0664 0.31476,1.06218 0.54161,2.10036 0.67969,3.11524 l 0.1582,1.17773 -2.68945,2.96875 c -1.88274,2.0821 -3.16524,3.69447 -3.84961,4.83594 -0.68435,1.14144 -0.99911,2.19253 -0.94141,3.1543 0.0593,1.30918 0.60892,2.2615 1.64844,2.85547 1.64543,1.04022 4.00428,0.59944 7.07422,-1.32227 0.68747,-0.44666 1.203,-0.84443 1.54882,-1.19336 0.34586,-0.34895 0.75852,-0.88572 1.23633,-1.60937 1.82655,-2.69647 2.33177,-6.64562 1.51758,-11.84766 l -0.29687,-2.06641 1.08789,-2.12109 c 0.31274,-0.57859 0.6497,-1.24675 1.00976,-2.00195 0.28009,-0.60663 0.48196,-1.05587 0.68555,-1.50782 0.44822,1.09742 1.05526,2.08878 1.83398,2.96485 1.05258,1.13371 2.33498,1.9334 3.84961,2.40234 1.51461,0.46899 3.00415,0.50605 4.4668,0.10938 2.10857,-0.57059 4.06128,-1.79767 5.85937,-3.68164 1.85696,-1.8682 3.39495,-4.24716 4.61133,-7.13867 0.32277,-0.73366 0.66296,-1.65328 1.02149,-2.75586 0.3585,-1.10259 0.66929,-2.20204 0.93164,-3.29883 0.29959,-1.11836 0.52939,-2.09767 0.6914,-2.9375 0.006,-0.0265 0.006,-0.0386 0.0117,-0.0645 0.3239,0.30614 0.52749,0.50127 0.91992,0.8711 1.39576,1.38338 2.50683,2.53169 3.33399,3.44726 0.84868,0.95292 1.456,1.74648 1.82226,2.38086 l 0.58399,1.00782 -1.21094,2.04296 c -0.35006,0.60017 -0.78944,1.30142 -1.32031,2.10547 -0.50936,0.84138 -0.939,1.56195 -1.28906,2.16211 -0.91251,1.52192 -1.58842,2.80793 -2.02735,3.85742 -0.47634,1.07107 -0.77944,2.14146 -0.9082,3.21094 -0.35502,3.09077 0.56294,5.19701 2.75391,6.32031 0.60013,0.34999 1.1635,0.5479 1.6875,0.59375 0.50819,0.10482 1.11357,0.0782 1.81835,-0.0801 1.0522,-0.1597 2.14764,-0.71744 3.28711,-1.67383 1.16105,-0.91911 2.33226,-2.16758 3.51172,-3.74414 0.34014,-0.44513 0.62511,-0.98355 0.85743,-1.61524 0.26968,-0.65325 0.50022,-1.33272 0.68945,-2.03906 0.18925,-0.70632 0.31906,-1.42813 0.39062,-2.16601 0.10759,-0.75941 0.15241,-1.45784 0.13477,-2.09376 -0.0666,-1.75274 -0.33738,-3.3866 -0.81445,-4.90234 -0.43974,-1.53731 -1.08366,-3.08129 -1.92969,-4.63281 l -1.00196,-1.73438 1.33204,-3.38086 c 0.43313,-1.14567 0.83663,-2.29948 1.21093,-3.46093 0.3743,-1.16145 0.68906,-2.21447 0.94141,-3.15625 0.26812,-1.00065 0.45957,-1.83089 0.57422,-2.49414 0.0925,-0.70068 0.0841,-1.14558 -0.0234,-1.33203 -0.15083,-0.26122 -0.37367,-0.4309 -0.66797,-0.50977 -0.2942,-0.0789 -0.55334,-0.0531 -0.77734,0.0762 -0.0746,0.0431 -0.23222,0.4574 -0.47461,1.24414 -0.2266,0.72786 -0.50106,1.63185 -0.82227,2.71289 -0.26812,1.00065 -0.55793,1.96462 -0.86914,2.89063 -0.3112,0.92601 -0.59939,1.76426 -0.86328,2.51367 -0.26401,0.74943 -0.50628,1.36122 -0.72851,1.83789 -0.1851,0.45511 -0.31409,0.70496 -0.38868,0.74805 -0.0745,0.0431 -0.20429,-0.007 -0.38671,-0.15039 -0.14496,-0.16507 -0.31178,-0.3678 -0.5,-0.60743 -0.22544,-0.21812 -0.63854,-0.67557 -1.24024,-1.37304 -0.6017,-0.69748 -1.263,-1.41163 -1.98242,-2.14063 l -2.47266,-2.60156 0.74219,-2.59375 c 0.35268,-1.19877 0.54537,-2.32887 0.57813,-3.39258 0.0113,-1.10105 -0.1052,-2.07954 -0.34961,-2.93359 -0.24434,-0.85405 -0.62315,-1.55531 -1.13868,-2.10352 -0.49972,-0.60696 -1.12157,-0.9943 -1.86523,-1.16211 -0.22467,-0.0445 -0.42639,-0.0715 -0.60547,-0.0801 z m 0.20313,2.42187 c 0.19485,-0.0503 0.3986,0.0232 0.61328,0.22266 0.28437,0.2339 0.53299,0.66273 0.74414,1.28711 0.19023,0.58706 0.28654,1.22905 0.28906,1.92382 0.0232,0.38473 -0.007,0.84902 -0.0898,1.39454 -0.10457,0.50819 -0.22142,0.99787 -0.34766,1.46874 l -0.42578,1.58985 -0.48438,-0.83985 c -0.32317,-0.55974 -0.62462,-1.25538 -0.90625,-2.08789 -0.24433,-0.85407 -0.39296,-1.54039 -0.44336,-2.05859 -0.0204,-0.98331 0.14601,-1.77484 0.4961,-2.375 0.17503,-0.30013 0.35983,-0.47506 0.55469,-0.52539 z m -177.86133,7.59961 c 0.0427,-0.0122 0.0694,-0.009 0.0801,0.01 0.0589,0.0156 0.10159,0.0911 0.1289,0.22461 0.006,0.0962 0.11903,0.55241 0.3418,1.36915 0.22277,0.81673 0.44358,1.75822 0.66211,2.82617 0.53903,2.22631 1.02776,4.40903 1.46484,6.54492 0.45286,2.07705 0.81912,4.00471 1.09961,5.7832 0.30203,1.81584 0.51476,3.43434 0.63867,4.85547 0.16124,1.39956 0.23167,2.55224 0.20899,3.46094 -0.003,0.5986 -0.0728,1.21197 -0.20899,1.83789 -0.0773,0.64171 -0.21318,1.26681 -0.4082,1.87695 -0.13619,0.62594 -0.32439,1.20668 -0.5625,1.74219 -0.2008,0.51399 -0.41649,0.91297 -0.65039,1.19727 -1.85386,2.56299 -4.13736,2.96104 -6.84961,1.19335 -1.12568,-0.74323 -2.15897,-1.71374 -3.09961,-2.91211 -0.88179,-1.18256 -1.62771,-2.51743 -2.23828,-4.00585 -0.57325,-1.50998 -0.99676,-3.10672 -1.27148,-4.78907 -0.27473,-1.68234 -0.35037,-3.40564 -0.22461,-5.16992 0.50036,-6.45851 3.38056,-11.38043 8.64062,-14.76562 0.53821,-0.36037 0.9747,-0.63802 1.31055,-0.83204 0.33584,-0.19376 0.59091,-0.31439 0.76172,-0.36328 0.0747,-0.0431 0.13308,-0.0718 0.17578,-0.084 z m 163.30078,6.83203 c 0.40625,0.0142 0.73755,0.24554 0.99609,0.69336 0.25928,0.4478 0.38452,1.09745 0.37696,1.94727 0.009,0.79095 -0.0819,1.66549 -0.27539,2.62304 -0.1562,0.93602 -0.41696,1.9057 -0.78125,2.91211 -0.34853,0.94753 -0.76246,1.78416 -1.24024,2.50781 -0.17504,0.3001 -0.43542,0.62373 -0.78125,0.97266 -0.34585,0.34885 -0.67593,0.63979 -0.99023,0.87109 -0.59122,0.44163 -0.935,0.66489 -1.03125,0.66993 -0.11767,-0.0316 -0.20314,-0.18028 -0.25782,-0.44727 -0.13077,-0.57129 -0.22707,-1.21328 -0.28906,-1.92383 -0.0461,-0.76943 -0.0634,-1.53152 -0.0508,-2.28515 0.0499,-0.77518 0.14097,-1.52203 0.27148,-2.24414 0.10875,-0.75941 0.27159,-1.42715 0.48829,-2 0.29543,-0.86715 0.65536,-1.6224 1.08007,-2.26563 0.40315,-0.68057 0.80623,-1.18635 1.21094,-1.51953 0.44203,-0.3556 0.86719,-0.52684 1.27344,-0.51172 z m 21.80469,11.36719 c 0.0804,0.0531 0.19515,0.33718 0.34179,0.84961 0.20548,0.5282 0.39848,1.1622 0.57813,1.90429 0.17965,0.7421 0.34006,1.49613 0.48242,2.25977 0.14236,0.76364 0.22688,1.38433 0.25586,1.86523 0.0593,1.30918 -0.0577,2.5726 -0.35156,3.78711 -0.2939,1.21454 -0.7308,2.13824 -1.31055,2.77149 -0.23388,0.28432 -0.51562,0.57126 -0.8457,0.86133 -0.33008,0.29006 -0.65454,0.50166 -0.97461,0.63671 -0.85828,0.4954 -1.61228,0.65773 -2.25977,0.48438 -0.62591,-0.13619 -1.10269,-0.53353 -1.43164,-1.18945 -0.34482,-0.59704 -0.49753,-1.37815 -0.45898,-2.34571 0.001,-0.94599 0.23655,-2.00267 0.70703,-3.16992 0.16927,-0.39624 0.5429,-1.08577 1.12109,-2.0664 0.54088,-0.9591 1.11887,-1.93923 1.73438,-2.94141 0.57819,-0.98064 1.09647,-1.85231 1.55273,-2.61328 0.51525,-0.74454 0.80067,-1.10887 0.85938,-1.09375 z m -76.28321,4.73633 c -0.60734,0.0428 -1.23113,0.21969 -1.87109,0.5332 -0.82673,0.3778 -1.44857,0.81061 -1.86328,1.29883 -0.3774,0.46664 -0.7317,1.14451 -1.06445,2.0332 -0.35856,1.10259 -0.45858,2.18023 -0.29883,3.23242 0.19699,1.03063 0.57053,1.93502 1.11914,2.71289 0.58593,0.75631 1.32624,1.34842 2.2207,1.77735 0.87292,0.39156 1.81318,0.47066 2.82227,0.23632 0.70478,-0.15816 1.35401,-0.45756 1.94531,-0.89843 0.79365,-0.60747 1.38573,-1.34779 1.77734,-2.22071 0.40739,-0.93178 0.61215,-1.87039 0.61328,-2.8164 0.001,-0.94599 -0.20997,-1.87012 -0.63085,-2.77149 -0.42092,-0.90136 -1.04355,-1.63491 -1.86915,-2.20312 -0.92162,-0.68068 -1.88815,-0.98538 -2.90039,-0.91406 z m 0.92578,2.27929 c 0.1335,-0.0275 0.36199,0.0649 0.6836,0.27735 0.64325,0.42469 1.1148,1.07158 1.41797,1.9414 0.30312,0.86985 0.34572,1.71698 0.125,2.54102 -0.14184,0.52976 -0.32483,0.85902 -0.54883,0.98828 -0.26122,0.14992 -0.54173,0.13801 -0.8418,-0.0371 -0.32164,-0.21236 -0.63956,-0.5037 -0.95117,-0.87109 -0.27442,-0.38894 -0.5134,-0.8468 -0.71875,-1.375 -0.20521,-0.52756 -0.33424,-1.05078 -0.38476,-1.56836 0,0 0,-0.002 0,-0.002 -0.0288,-0.47974 -5.5e-4,-0.81789 0.084,-1.01562 0.0847,-0.19805 0.24671,-0.39186 0.48633,-0.58008 0.27706,-0.20989 0.49347,-0.30891 0.64843,-0.29883 z m 36.06446,10.59766 c 0.13808,0.0689 0.14778,0.38604 0.0273,0.95312 -0.0615,0.58283 -0.19529,1.25629 -0.40039,2.02149 -0.20503,0.76518 -0.46827,1.51634 -0.79101,2.25 -0.30121,0.77097 -0.58612,1.3558 -0.85157,1.75781 h 0.002 c -0.84941,1.28658 -1.65668,1.82815 -2.42188,1.62305 -0.62649,-0.13619 -0.94084,-0.55132 -0.94336,-1.2461 0.0558,-0.679 0.40201,-1.5019 1.03906,-2.46679 0.24968,-0.34316 0.591,-0.78691 1.02149,-1.33399 0.46778,-0.56861 0.92687,-1.10938 1.3789,-1.61914 0.48935,-0.53127 0.91575,-1.00039 1.27735,-1.4082 0.38332,-0.36984 0.6034,-0.54637 0.66211,-0.53125 z m -69.42578,21.19922 c 0.40625,0.0142 0.73755,0.24556 0.99609,0.69336 0.25928,0.4478 0.38647,1.09745 0.37891,1.94726 0.009,0.79098 -0.0838,1.66552 -0.27735,2.62305 -0.15617,0.93601 -0.41695,1.9057 -0.78125,2.91211 -0.34852,0.94755 -0.76242,1.78416 -1.24023,2.50781 -0.17504,0.30007 -0.43542,0.62371 -0.78125,0.97266 -0.34585,0.34885 -0.67593,0.63978 -0.99024,0.87109 -0.59121,0.4416 -0.93499,0.66488 -1.03125,0.66992 -0.11766,-0.0315 -0.20313,-0.18025 -0.25781,-0.44726 -0.13077,-0.57129 -0.22708,-1.21328 -0.28906,-1.92383 -0.0461,-0.76941 -0.0634,-1.53149 -0.0508,-2.28516 0.0499,-0.77518 0.14096,-1.52397 0.27148,-2.24609 0.10898,-0.75941 0.27184,-1.4252 0.48828,-1.99805 0.29546,-0.86712 0.65539,-1.62237 1.08008,-2.26562 0.40315,-0.68057 0.80623,-1.18636 1.21094,-1.51953 0.44203,-0.35561 0.86719,-0.52684 1.27344,-0.51172 z"
         style="font-style:normal;font-variant:normal;font-weight:normal;font-stretch:normal;font-size:60.01102829px;line-height:1.25;font-family:Magelove;-inkscape-font-specification:'Magelove, Normal';font-variant-ligatures:normal;font-variant-caps:normal;font-variant-numeric:normal;font-feature-settings:normal;text-align:center;letter-spacing:0px;word-spacing:0px;writing-mode:lr-tb;text-anchor:middle;fill:#ffffff;fill-opacity:1;stroke:#fe9a76;stroke-width:4.79595192;stroke-miterlimit:4;stroke-dasharray:none;stroke-opacity:1;paint-order:markers stroke fill"
         inkscape:connector-curvature="0" />
    </g>
  </g>
</svg>
